<?xml version="1.0" encoding="UTF-8"?>
<svg width="123.23mm" height="36.204mm" version="1.1" viewBox="0 0 123.23 36.204" xmlns="http://www.w3.org/2000/svg" xmlns:ns123="http://www.iki.fi/pav/software/textext/" xmlns:xlink="http://www.w3.org/1999/xlink">
 <defs>
  <linearGradient id="linearGradient2" x1="270.99" x2="287.97" y1="129.89" y2="129.89" gradientUnits="userSpaceOnUse">
   <stop offset="0"/>
   <stop stop-opacity="0" offset="1"/>
  </linearGradient>
 </defs>
 <g transform="translate(-30.95 -80.362)">
  <g transform="matrix(.36019 0 0 .36019 30.95 80.362)" stroke-width=".99948" ns123:alignment="middle center" ns123:jacobian_sqrt="0.360186" ns123:pdfconverter="inkscape" ns123:preamble="/Users/neewbee/Library/Application Support/org.inkscape.Inkscape/config/inkscape/extensions/textext/default_packages.tex" ns123:scale="1.0209999999999997" ns123:stroke-to-path="1" ns123:texconverter="pdflatex" ns123:text="\n\\section*{The Beer-Lambert Law}\n\n\n\n\\begin{equation}\nA = -\\log_{10}\\left(\\frac{I}{I_0}\\right)\n\\end{equation}\n\nwhere:\n\\begin{itemize}\n    \\item $I_0$ is the incident light intensity,\n    \\item $I$ is the transmitted light intensity.\n\\end{itemize}" ns123:version="1.10.2">
   <defs id="id-47c9b924-af2a-4864-b10e-63d63e2df2ec">
    <g id="id-342853fe-e1c8-4b97-bcea-aacd140518fd"></g>
   </defs>
   <g stroke-width=".99948">
    <g id="id-038f7228-1b9d-4534-a6f4-73307256a76c" transform="translate(-134.36 -124.81)">
     <g transform="translate(133.77 134.76)">
      <path d="m10.328-9.7031h-9.4531l-0.28125 3.3906h0.59375c0.125-1.5625 0.25-2.7812 2.3125-2.7812h1.1562v8.4844h-2.1562v0.60938c1.1406-0.03125 2.625-0.03125 3.1094-0.03125 0.875 0 1.9688 0 3.1094 0.03125v-0.60938h-2.1562v-8.4844h1.1406c2.0625 0 2.1875 1.2031 2.3125 2.7812h0.59375z" stroke-width=".99948"/>
     </g>
     <g transform="translate(144.99 134.76)">
      <path d="m7.6094-4.3906c0-1.3594-0.57812-2.0625-2.1562-2.0625-1.4531 0-2.1562 1.0156-2.3594 1.4531h-0.015625v-4.9531l-2.4688 0.10938v0.625c0.875 0 0.98438 0 0.98438 0.5625v8.0469h-0.98438v0.60938c0.32812-0.03125 1.3594-0.03125 1.75-0.03125 0.40625 0 1.4531 0 1.7812 0.03125v-0.60938h-0.98438v-3.0625c0-1.5469 1.1406-2.3125 2.0625-2.3125 0.53125 0 0.82812 0.34375 0.82812 1.4375v3.9375h-0.98438v0.60938c0.32812-0.03125 1.3594-0.03125 1.7656-0.03125s1.4531 0 1.7812 0.03125v-0.60938h-1z" stroke-width=".99948"/>
     </g>
     <g transform="translate(153.96 134.76)">
      <path id="id-4d375e02-ee43-4e1b-ac01-763fba302c3a" d="m6.4844-3.1719c0.32812 0 0.42188 0 0.42188-0.35938 0-0.42188-0.10938-1.5-0.76562-2.1719-0.60938-0.60938-1.4062-0.79688-2.2344-0.79688-2.25 0-3.4688 1.4688-3.4688 3.2656 0 2.0156 1.4844 3.3281 3.6562 3.3281 2.1562 0 2.8125-1.5312 2.8125-1.7656 0-0.21875-0.21875-0.21875-0.3125-0.21875-0.21875 0-0.23438 0.046875-0.32812 0.23438-0.375 0.92188-1.3125 1.2188-2 1.2188-2.0781 0-2.0938-1.9219-2.0938-2.7344zm-4.3125-0.40625c0.015625-0.59375 0.03125-1.1562 0.34375-1.6719 0.26562-0.45312 0.76562-0.78125 1.3906-0.78125 1.5312 0 1.6562 1.7344 1.6719 2.4531z" stroke-width=".99948"/>
     </g>
    </g>
    <g id="id-db609235-85d4-4b7d-aa63-396b800ccdfa" transform="translate(-134.36 -124.81)">
     <g transform="translate(166.7 134.76)">
      <path id="id-2837e298-8607-4cd1-973a-5c93cda7ffee" d="m0.5625-9.8438v0.625h1.5156v8.6094h-1.5156v0.60938h6.4844c2.3594 0 3.5312-1.2812 3.5312-2.6562 0-1.3594-1.2031-2.3438-2.9375-2.4844 2.0625-0.375 2.4688-1.5625 2.4688-2.2344 0-1.3125-1.2031-2.4688-3.5-2.4688zm3.2812 4.5v-3.875h2.5938c1.4844 0 1.7812 1.1094 1.7812 1.8281 0 1-0.5625 2.0469-2.2344 2.0469zm0 4.7344v-4.2656h2.8594c1.6719 0 1.9219 1.5469 1.9219 2.1875 0 0.90625-0.48438 2.0781-2.1406 2.0781z" stroke-width=".99948"/>
     </g>
     <g transform="translate(178.18 134.76)">
      <path d="m6.4844-3.1719c0.32812 0 0.42188 0 0.42188-0.35938 0-0.42188-0.10938-1.5-0.76562-2.1719-0.60938-0.60938-1.4062-0.79688-2.2344-0.79688-2.25 0-3.4688 1.4688-3.4688 3.2656 0 2.0156 1.4844 3.3281 3.6562 3.3281 2.1562 0 2.8125-1.5312 2.8125-1.7656 0-0.21875-0.21875-0.21875-0.3125-0.21875-0.21875 0-0.23438 0.046875-0.32812 0.23438-0.375 0.92188-1.3125 1.2188-2 1.2188-2.0781 0-2.0938-1.9219-2.0938-2.7344zm-4.3125-0.40625c0.015625-0.59375 0.03125-1.1562 0.34375-1.6719 0.26562-0.45312 0.76562-0.78125 1.3906-0.78125 1.5312 0 1.6562 1.7344 1.6719 2.4531z" stroke-width=".99948"/>
     </g>
     <g transform="translate(185.54 134.76)">
      <path d="m6.4844-3.1719c0.32812 0 0.42188 0 0.42188-0.35938 0-0.42188-0.10938-1.5-0.76562-2.1719-0.60938-0.60938-1.4062-0.79688-2.2344-0.79688-2.25 0-3.4688 1.4688-3.4688 3.2656 0 2.0156 1.4844 3.3281 3.6562 3.3281 2.1562 0 2.8125-1.5312 2.8125-1.7656 0-0.21875-0.21875-0.21875-0.3125-0.21875-0.21875 0-0.23438 0.046875-0.32812 0.23438-0.375 0.92188-1.3125 1.2188-2 1.2188-2.0781 0-2.0938-1.9219-2.0938-2.7344zm-4.3125-0.40625c0.015625-0.59375 0.03125-1.1562 0.34375-1.6719 0.26562-0.45312 0.76562-0.78125 1.3906-0.78125 1.5312 0 1.6562 1.7344 1.6719 2.4531z" stroke-width=".99948"/>
     </g>
     <g transform="translate(192.9 134.76)">
      <path id="id-93bf649c-0ecd-4c57-a1dc-17fb0407e18a" d="m2.9844-3.2344c0-0.46875 0.09375-2.75 1.7812-2.75-0.20312 0.15625-0.3125 0.40625-0.3125 0.65625 0 0.59375 0.48438 0.84375 0.84375 0.84375s0.82812-0.25 0.82812-0.84375c0-0.71875-0.75-1.125-1.4375-1.125-1.125 0-1.625 0.98438-1.8125 1.5938h-0.015625v-1.5938l-2.3594 0.10938v0.625c0.89062 0 0.98438 0 0.98438 0.5625v4.5469h-0.98438v0.60938c0.32812-0.03125 1.4062-0.03125 1.8125-0.03125s1.5781 0 1.9219 0.03125v-0.60938h-1.25z" stroke-width=".99948"/>
     </g>
     <g transform="translate(199.5 134.76)">
      <path id="id-2df6cf9a-440a-4a71-87d3-8b9a285edf8b" d="m4.4688-2.5312v-1.3125h-4.2969v1.3125z" stroke-width=".99948"/>
     </g>
     <g transform="translate(204.88 134.76)">
      <path id="id-bf548114-9745-4dd2-8111-2d5690e2205a" d="m9.0156-3.875h-0.60938c-0.09375 0.98438-0.32812 3.2656-2.9062 3.2656h-1.5469v-8.6094h1.9062v-0.625c-0.70312 0.03125-1.9688 0.03125-2.7344 0.03125-0.53125 0-2.1562 0-2.5781-0.03125v0.625h1.5156v8.6094h-1.5156v0.60938h8.0469z" stroke-width=".99948"/>
     </g>
     <g transform="translate(214.57 134.76)">
      <path d="m6.5938-4.2812c0-1.3281-1.0469-2.2188-3.0625-2.2188-0.8125 0-2.5 0.078125-2.5 1.2812 0 0.59375 0.45312 0.85938 0.84375 0.85938 0.4375 0 0.84375-0.29688 0.84375-0.84375 0-0.28125-0.09375-0.53125-0.34375-0.6875 0.48438-0.14062 0.82812-0.14062 1.0938-0.14062 0.98438 0 1.5625 0.54688 1.5625 1.7344v0.5625c-2.2656 0-4.5469 0.64062-4.5469 2.2344 0 1.2969 1.6719 1.5938 2.6562 1.5938 1.1094 0 1.8125-0.60938 2.0938-1.2344 0 0.53125 0 1.1406 1.4531 1.1406h0.73438c0.29688 0 0.40625 0 0.40625-0.3125 0-0.29688-0.125-0.29688-0.32812-0.29688-0.90625-0.015625-0.90625-0.25-0.90625-0.57812zm-1.5625 2.2812c0 1.3594-1.2031 1.6094-1.6562 1.6094-0.70312 0-1.2969-0.46875-1.2969-1.125 0-1.3125 1.5469-1.75 2.9531-1.8281z" stroke-width=".99948"/>
     </g>
     <g transform="translate(222.42 134.76)">
      <path id="id-82615584-d607-4435-afed-8532105197df" d="m12.109-4.3906c0-1.3125-0.5625-2.0625-2.1719-2.0625-1.4531 0-2.125 0.96875-2.3438 1.4375-0.23438-1.2188-1.2031-1.4375-2.125-1.4375-1.375 0-2.125 0.89062-2.4219 1.5781h-0.015625v-1.5781l-2.4219 0.10938v0.625c0.875 0 0.98438 0 0.98438 0.5625v4.5469h-0.98438v0.60938c0.32812-0.03125 1.3594-0.03125 1.75-0.03125 0.40625 0 1.4531 0 1.7812 0.03125v-0.60938h-0.98438v-3.0625c0-1.5625 1.1562-2.3125 2.0625-2.3125 0.53125 0 0.84375 0.3125 0.84375 1.4375v3.9375h-0.98438v0.60938c0.32812-0.03125 1.3594-0.03125 1.7656-0.03125s1.4531 0 1.7812 0.03125v-0.60938h-1v-3.0625c0-1.5625 1.1719-2.3125 2.0781-2.3125 0.53125 0 0.84375 0.3125 0.84375 1.4375v3.9375h-1v0.60938c0.34375-0.03125 1.375-0.03125 1.7656-0.03125 0.40625 0 1.4531 0 1.7812 0.03125v-0.60938h-0.98438z" stroke-width=".99948"/>
     </g>
    </g>
    <g transform="translate(-134.36 -124.81)">
     <g transform="translate(235.42 134.76)" stroke-width=".99948">
      <path id="id-2d66b381-63e0-4725-b629-badf538585ac" d="m2.9844-9.9531-2.4844 0.10938v0.625c0.89062 0 0.98438 0 0.98438 0.5625v8.6562h0.60938c0.25-0.26562 0.48438-0.54688 0.71875-0.82812 0.73438 0.75 1.5156 0.92188 2.0938 0.92188 1.9844 0 3.5-1.2188 3.5-3.2969 0-1.9531-1.3438-3.25-3.3125-3.25-0.84375 0-1.5156 0.26562-2.1094 0.73438zm0.078125 4.9219c0.5-0.6875 1.2344-0.95312 1.8438-0.95312 1.7812 0 1.7812 1.8281 1.7812 2.7656 0 0.65625 0 1.4688-0.34375 2-0.45312 0.6875-1.125 0.82812-1.5781 0.82812-0.98438 0-1.5156-0.6875-1.7031-1z" stroke-width=".99948"/>
     </g>
    </g>
    <g id="id-0e0ec249-5360-40d3-b347-616db862001c" transform="translate(-134.36 -124.81)">
     <g transform="translate(244.84 134.76)">
      <path id="id-6453036a-a2d0-45d7-b5a7-5a8857bb411d" d="m6.4844-3.1719c0.32812 0 0.42188 0 0.42188-0.35938 0-0.42188-0.10938-1.5-0.76562-2.1719-0.60938-0.60938-1.4062-0.79688-2.2344-0.79688-2.25 0-3.4688 1.4688-3.4688 3.2656 0 2.0156 1.4844 3.3281 3.6562 3.3281 2.1562 0 2.8125-1.5312 2.8125-1.7656 0-0.21875-0.21875-0.21875-0.3125-0.21875-0.21875 0-0.23438 0.046875-0.32812 0.23438-0.375 0.92188-1.3125 1.2188-2 1.2188-2.0781 0-2.0938-1.9219-2.0938-2.7344zm-4.3125-0.40625c0.015625-0.59375 0.03125-1.1562 0.34375-1.6719 0.26562-0.45312 0.76562-0.78125 1.3906-0.78125 1.5312 0 1.6562 1.7344 1.6719 2.4531z" stroke-width=".99948"/>
     </g>
     <g transform="translate(252.2 134.76)">
      <path d="m2.9844-3.2344c0-0.46875 0.09375-2.75 1.7812-2.75-0.20312 0.15625-0.3125 0.40625-0.3125 0.65625 0 0.59375 0.48438 0.84375 0.84375 0.84375s0.82812-0.25 0.82812-0.84375c0-0.71875-0.75-1.125-1.4375-1.125-1.125 0-1.625 0.98438-1.8125 1.5938h-0.015625v-1.5938l-2.3594 0.10938v0.625c0.89062 0 0.98438 0 0.98438 0.5625v4.5469h-0.98438v0.60938c0.32812-0.03125 1.4062-0.03125 1.8125-0.03125s1.5781 0 1.9219 0.03125v-0.60938h-1.25z" stroke-width=".99948"/>
     </g>
     <g transform="translate(258.79 134.76)">
      <path d="m3.0312-5.75h2.0625v-0.625h-2.0625v-2.7344h-0.60938c-0.015625 1.4219-0.70312 2.8438-2.125 2.8906v0.46875h1.1719v3.9844c0 1.5156 1.1719 1.8594 2.2031 1.8594 1.0625 0 1.6875-0.8125 1.6875-1.875v-0.75h-0.59375v0.73438c0 0.95312-0.4375 1.3594-0.875 1.3594-0.85938 0-0.85938-0.95312-0.85938-1.2812z" stroke-width=".99948"/>
     </g>
    </g>
   </g>
   <g id="id-7f5d2806-36d5-4d15-adfc-af177a02760d" transform="translate(-134.36 -124.81)" fill="url(#linearGradient2)" stroke-width=".99948">
    <g transform="translate(270.45 134.76)">
     <path d="m9.0156-3.875h-0.60938c-0.09375 0.98438-0.32812 3.2656-2.9062 3.2656h-1.5469v-8.6094h1.9062v-0.625c-0.70312 0.03125-1.9688 0.03125-2.7344 0.03125-0.53125 0-2.1562 0-2.5781-0.03125v0.625h1.5156v8.6094h-1.5156v0.60938h8.0469z" fill="url(#linearGradient2)" stroke-width=".99948"/>
    </g>
    <g transform="translate(280.14 134.76)">
     <path d="m6.5938-4.2812c0-1.3281-1.0469-2.2188-3.0625-2.2188-0.8125 0-2.5 0.078125-2.5 1.2812 0 0.59375 0.45312 0.85938 0.84375 0.85938 0.4375 0 0.84375-0.29688 0.84375-0.84375 0-0.28125-0.09375-0.53125-0.34375-0.6875 0.48438-0.14062 0.82812-0.14062 1.0938-0.14062 0.98438 0 1.5625 0.54688 1.5625 1.7344v0.5625c-2.2656 0-4.5469 0.64062-4.5469 2.2344 0 1.2969 1.6719 1.5938 2.6562 1.5938 1.1094 0 1.8125-0.60938 2.0938-1.2344 0 0.53125 0 1.1406 1.4531 1.1406h0.73438c0.29688 0 0.40625 0 0.40625-0.3125 0-0.29688-0.125-0.29688-0.32812-0.29688-0.90625-0.015625-0.90625-0.25-0.90625-0.57812zm-1.5625 2.2812c0 1.3594-1.2031 1.6094-1.6562 1.6094-0.70312 0-1.2969-0.46875-1.2969-1.125 0-1.3125 1.5469-1.75 2.9531-1.8281z" fill="url(#linearGradient2)" stroke-width=".99948"/>
    </g>
   </g>
   <g stroke-width=".99948">
    <g transform="translate(-134.36 -124.81)">
     <g transform="translate(287.54 134.76)">
      <path d="m10.328-5.4062c0.09375-0.25 0.14062-0.34375 0.96875-0.34375v-0.625c-0.40625 0.03125-0.59375 0.03125-1.1094 0.03125-0.59375 0-0.78125 0-1.2969-0.03125v0.625c0.125 0 0.82812 0 0.82812 0.1875 0 0.015625 0 0.03125-0.046875 0.17188l-1.5156 3.7344-1.6406-4.0938h0.8125v-0.625c-0.34375 0.03125-1.1875 0.03125-1.5781 0.03125-0.73438 0-0.76562 0-1.4688-0.03125v0.625h0.84375c0.03125 0.10938 0.10938 0.29688 0.17188 0.42188 0.03125 0.09375 0.1875 0.4375 0.1875 0.51562 0 0.015625-0.046875 0.125-0.0625 0.17188l-1.0938 2.7031-1.5469-3.8125h0.8125v-0.625c-0.32812 0.03125-1.2969 0.03125-1.6875 0.03125-0.45312 0-1.1406 0-1.5781-0.03125v0.625h0.84375l2.2031 5.4688c0.09375 0.25 0.15625 0.35938 0.46875 0.35938 0.15625 0 0.32812 0 0.4375-0.29688l1.5312-3.7969 1.5156 3.7656c0.125 0.32812 0.28125 0.32812 0.45312 0.32812 0.32812 0 0.35938-0.09375 0.46875-0.34375z" stroke-width=".99948"/>
     </g>
     <g transform="translate(266.1 160.07)">
      <path d="m1.7812-1.1406c-0.39062 0.65625-0.78125 0.79688-1.2188 0.82812-0.125 0.015625-0.21875 0.015625-0.21875 0.20312 0 0.0625 0.0625 0.10938 0.14062 0.10938 0.26562 0 0.57812-0.03125 0.84375-0.03125 0.34375 0 0.6875 0.03125 1 0.03125 0.0625 0 0.1875 0 0.1875-0.1875 0-0.10938-0.078125-0.125-0.15625-0.125-0.21875-0.015625-0.46875-0.09375-0.46875-0.34375 0-0.125 0.0625-0.23438 0.14062-0.375l0.76562-1.2656h2.5c0.015625 0.20312 0.15625 1.5625 0.15625 1.6562 0 0.29688-0.51562 0.32812-0.71875 0.32812-0.14062 0-0.23438 0-0.23438 0.20312 0 0.10938 0.10938 0.10938 0.14062 0.10938 0.40625 0 0.82812-0.03125 1.2344-0.03125 0.25 0 0.89062 0.03125 1.1406 0.03125 0.046875 0 0.17188 0 0.17188-0.20312 0-0.10938-0.09375-0.10938-0.23438-0.10938-0.60938 0-0.60938-0.0625-0.64062-0.35938l-0.60938-6.2188c-0.015625-0.20312-0.015625-0.25-0.1875-0.25-0.15625 0-0.20312 0.078125-0.26562 0.17188zm1.2031-1.4688 1.9531-3.2969 0.32812 3.2969z" stroke-width=".99948"/>
     </g>
     <g transform="translate(276.34 160.07)">
      <path d="m6.8438-3.2656c0.15625 0 0.34375 0 0.34375-0.1875 0-0.20312-0.1875-0.20312-0.32812-0.20312h-5.9688c-0.14062 0-0.32812 0-0.32812 0.20312 0 0.1875 0.1875 0.1875 0.32812 0.1875zm0.015625 1.9375c0.14062 0 0.32812 0 0.32812-0.20312 0-0.1875-0.1875-0.1875-0.34375-0.1875h-5.9531c-0.14062 0-0.32812 0-0.32812 0.1875 0 0.20312 0.1875 0.20312 0.32812 0.20312z" stroke-width=".99948"/>
     </g>
    </g>
    <g id="id-2caaae15-10eb-42dd-9b00-03153886b79b" transform="translate(-134.36 -124.81)">
     <g transform="translate(286.86 160.07)" stroke-width=".99948">
      <path d="m6.5625-2.2969c0.17188 0 0.35938 0 0.35938-0.20312 0-0.1875-0.1875-0.1875-0.35938-0.1875h-5.3906c-0.17188 0-0.34375 0-0.34375 0.1875 0 0.20312 0.17188 0.20312 0.34375 0.20312z" stroke-width=".99948"/>
     </g>
    </g>
    <g transform="translate(-134.36 -124.81)">
     <g transform="translate(296.27 160.07)">
      <path id="id-09432466-203b-4383-b78a-f4d07b1318dd" d="m1.7656-6.9219-1.4375 0.10938v0.3125c0.70312 0 0.78125 0.0625 0.78125 0.5625v5.1875c0 0.4375-0.10938 0.4375-0.78125 0.4375v0.3125c0.32812-0.015625 0.85938-0.03125 1.1094-0.03125s0.73438 0.015625 1.1094 0.03125v-0.3125c-0.67188 0-0.78125 0-0.78125-0.4375z" stroke-width=".99948"/>
     </g>
     <g transform="translate(299.04 160.07)">
      <path id="id-1038f961-1e5d-465f-82fa-ee9350e6574c" d="m4.6875-2.1406c0-1.2656-0.98438-2.3281-2.1875-2.3281-1.25 0-2.2188 1.0938-2.2188 2.3281 0 1.2969 1.0312 2.25 2.2031 2.25 1.2031 0 2.2031-0.98438 2.2031-2.25zm-2.1875 2c-0.4375 0-0.875-0.20312-1.1406-0.67188-0.25-0.4375-0.25-1.0469-0.25-1.4062 0-0.39062 0-0.92188 0.23438-1.3594 0.26562-0.45312 0.73438-0.67188 1.1406-0.67188 0.4375 0 0.85938 0.21875 1.125 0.65625 0.26562 0.42188 0.26562 1 0.26562 1.375 0 0.35938 0 0.90625-0.21875 1.3438-0.23438 0.45312-0.67188 0.73438-1.1562 0.73438z" stroke-width=".99948"/>
     </g>
     <g transform="translate(304.02 160.07)">
      <path d="m2.2188-1.7188c-0.875 0-0.875-1-0.875-1.2188 0-0.26562 0.015625-0.59375 0.15625-0.84375 0.078125-0.10938 0.3125-0.39062 0.71875-0.39062 0.85938 0 0.85938 0.98438 0.85938 1.2188 0 0.26562 0 0.59375-0.15625 0.84375-0.078125 0.10938-0.3125 0.39062-0.70312 0.39062zm-1.1562 0.39062c0-0.03125 0-0.26562 0.15625-0.46875 0.39062 0.28125 0.8125 0.3125 1 0.3125 0.92188 0 1.6094-0.6875 1.6094-1.4531 0-0.375-0.15625-0.73438-0.40625-0.96875 0.35938-0.34375 0.71875-0.39062 0.89062-0.39062 0.03125 0 0.078125 0 0.10938 0.015625-0.10938 0.03125-0.17188 0.14062-0.17188 0.26562 0 0.17188 0.14062 0.28125 0.29688 0.28125 0.09375 0 0.28125-0.0625 0.28125-0.29688 0-0.17188-0.10938-0.48438-0.5-0.48438-0.20312 0-0.64062 0.0625-1.0625 0.46875-0.42188-0.32812-0.82812-0.35938-1.0469-0.35938-0.9375 0-1.625 0.6875-1.625 1.4531 0 0.4375 0.21875 0.8125 0.46875 1.0312-0.125 0.14062-0.3125 0.46875-0.3125 0.82812 0 0.3125 0.14062 0.6875 0.45312 0.89062-0.60938 0.15625-0.92188 0.59375-0.92188 0.98438 0 0.71875 0.98438 1.2656 2.2031 1.2656 1.1719 0 2.2031-0.5 2.2031-1.2812 0-0.34375-0.125-0.85938-0.64062-1.1406-0.53125-0.26562-1.1094-0.26562-1.7188-0.26562-0.25 0-0.67188 0-0.75-0.015625-0.3125-0.046875-0.51562-0.34375-0.51562-0.67188zm1.4375 3.1562c-1.0156 0-1.7031-0.51562-1.7031-1.0469 0-0.45312 0.375-0.82812 0.8125-0.84375h0.59375c0.85938 0 1.9688 0 1.9688 0.84375 0 0.54688-0.70312 1.0469-1.6719 1.0469z" stroke-width=".99948"/>
     </g>
    </g>
    <g id="id-67168721-54fc-43d4-84b6-13b326e3d7ef" transform="translate(-134.36 -124.81)">
     <g transform="translate(309.14 162.51)">
      <path id="id-c11810e1-527a-4704-a91d-5bfd3953539f" d="m2.3281-4.4375c0-0.1875 0-0.1875-0.20312-0.1875-0.45312 0.4375-1.0781 0.4375-1.3594 0.4375v0.25c0.15625 0 0.625 0 1-0.1875v3.5469c0 0.23438 0 0.32812-0.6875 0.32812h-0.26562v0.25c0.125 0 0.98438-0.03125 1.2344-0.03125 0.21875 0 1.0938 0.03125 1.25 0.03125v-0.25h-0.26562c-0.70312 0-0.70312-0.09375-0.70312-0.32812z" stroke-width=".99948"/>
     </g>
     <g transform="translate(313.11 162.51)">
      <path id="id-77aa5357-6563-464d-b093-4ebe9176e65e" d="m3.5938-2.2188c0-0.76562-0.09375-1.3281-0.40625-1.8125-0.21875-0.3125-0.65625-0.59375-1.2031-0.59375-1.625 0-1.625 1.9062-1.625 2.4062s0 2.3594 1.625 2.3594c1.6094 0 1.6094-1.8594 1.6094-2.3594zm-1.6094 2.1562c-0.32812 0-0.75-0.1875-0.89062-0.75-0.09375-0.40625-0.09375-0.98438-0.09375-1.5s0-1.0469 0.09375-1.4219c0.15625-0.54688 0.59375-0.70312 0.89062-0.70312 0.375 0 0.73438 0.23438 0.85938 0.64062 0.10938 0.375 0.125 0.875 0.125 1.4844 0 0.51562 0 1.0312-0.09375 1.4688-0.14062 0.64062-0.60938 0.78125-0.89062 0.78125z" stroke-width=".99948"/>
     </g>
    </g>
    <g transform="translate(-134.36 -124.81)">
     <g transform="translate(319.24 146.02)">
      <path d="m6.9844 23.422c0-0.04687-0.03125-0.0625-0.046875-0.09375-0.375-0.375-1.0312-1.0312-1.7031-2.1094-1.6094-2.5781-2.3281-5.8125-2.3281-9.6562 0-2.6875 0.35938-6.1406 2-9.1094 0.78125-1.4219 1.6094-2.2344 2.0469-2.6719 0.03125-0.03125 0.03125-0.046875 0.03125-0.078125 0-0.10938-0.078125-0.10938-0.21875-0.10938s-0.15625 0-0.3125 0.15625c-3.3281 3.0469-4.375 7.6094-4.375 11.797 0 3.9219 0.89062 7.875 3.4219 10.859 0.20312 0.21875 0.57812 0.625 0.98438 0.98438 0.125 0.125 0.14062 0.125 0.28125 0.125s0.21875 0 0.21875-0.09375z" stroke-width=".99948"/>
     </g>
     <g transform="translate(329.61 153.33)">
      <path id="id-4c1bf3cf-347c-45df-91ad-719abe4ca96b" d="m3.7344-6.0469c0.078125-0.35938 0.10938-0.45312 0.90625-0.45312 0.23438 0 0.3125 0 0.3125-0.1875 0-0.125-0.10938-0.125-0.14062-0.125-0.29688 0-1.0312 0.03125-1.3281 0.03125s-1.0156-0.03125-1.3281-0.03125c-0.0625 0-0.1875 0-0.1875 0.20312 0 0.10938 0.078125 0.10938 0.28125 0.10938 0.40625 0 0.6875 0 0.6875 0.1875 0 0.046875 0 0.078125-0.03125 0.15625l-1.3438 5.375c-0.09375 0.375-0.10938 0.46875-0.90625 0.46875-0.23438 0-0.3125 0-0.3125 0.20312 0 0.10938 0.10938 0.10938 0.14062 0.10938 0.29688 0 1.0156-0.03125 1.3125-0.03125s1.0312 0.03125 1.3281 0.03125c0.078125 0 0.20312 0 0.20312-0.1875 0-0.125-0.078125-0.125-0.29688-0.125-0.1875 0-0.23438 0-0.42188-0.015625-0.21875-0.015625-0.25-0.0625-0.25-0.17188 0-0.078125 0.015625-0.15625 0.03125-0.23438z" stroke-width=".99948"/>
     </g>
    </g>
   </g>
   <path id="id-5bc79d22-c0a2-4892-b339-d28058222d1e" d="m193.4 32.77h8.8477" fill="none" stroke="#000" stroke-miterlimit="10" stroke-width=".99948"/>
   <g stroke-width=".99948">
    <g transform="translate(-134.36 -124.81)">
     <g transform="translate(327.77 166.91)">
      <path id="id-8b0f25f2-09cd-48ec-92dc-304711120dbf" d="m3.7344-6.0469c0.078125-0.35938 0.10938-0.45312 0.90625-0.45312 0.23438 0 0.3125 0 0.3125-0.1875 0-0.125-0.10938-0.125-0.14062-0.125-0.29688 0-1.0312 0.03125-1.3281 0.03125s-1.0156-0.03125-1.3281-0.03125c-0.0625 0-0.1875 0-0.1875 0.20312 0 0.10938 0.078125 0.10938 0.28125 0.10938 0.40625 0 0.6875 0 0.6875 0.1875 0 0.046875 0 0.078125-0.03125 0.15625l-1.3438 5.375c-0.09375 0.375-0.10938 0.46875-0.90625 0.46875-0.23438 0-0.3125 0-0.3125 0.20312 0 0.10938 0.10938 0.10938 0.14062 0.10938 0.29688 0 1.0156-0.03125 1.3125-0.03125s1.0312 0.03125 1.3281 0.03125c0.078125 0 0.20312 0 0.20312-0.1875 0-0.125-0.078125-0.125-0.29688-0.125-0.1875 0-0.23438 0-0.42188-0.015625-0.21875-0.015625-0.25-0.0625-0.25-0.17188 0-0.078125 0.015625-0.15625 0.03125-0.23438z" stroke-width=".99948"/>
     </g>
     <g transform="translate(332.15 168.4)">
      <path id="id-35813508-a435-44c6-88f6-f8e7e69df3de" d="m3.5938-2.2188c0-0.76562-0.09375-1.3281-0.40625-1.8125-0.21875-0.3125-0.65625-0.59375-1.2031-0.59375-1.625 0-1.625 1.9062-1.625 2.4062s0 2.3594 1.625 2.3594c1.6094 0 1.6094-1.8594 1.6094-2.3594zm-1.6094 2.1562c-0.32812 0-0.75-0.1875-0.89062-0.75-0.09375-0.40625-0.09375-0.98438-0.09375-1.5s0-1.0469 0.09375-1.4219c0.15625-0.54688 0.59375-0.70312 0.89062-0.70312 0.375 0 0.73438 0.23438 0.85938 0.64062 0.10938 0.375 0.125 0.875 0.125 1.4844 0 0.51562 0 1.0312-0.09375 1.4688-0.14062 0.64062-0.60938 0.78125-0.89062 0.78125z" stroke-width=".99948"/>
     </g>
     <g transform="translate(337.81 146.02)">
      <path id="id-231b233a-e2d5-4a13-9919-3f7d81eb1dcb" d="m5.25 11.562c0-3.9219-0.89062-7.8594-3.4219-10.844-0.20312-0.23438-0.57812-0.64062-0.98438-1-0.125-0.125-0.14062-0.125-0.28125-0.125-0.125 0-0.21875 0-0.21875 0.10938 0 0.03125 0.046875 0.078125 0.0625 0.09375 0.34375 0.35938 1.0156 1.0312 1.6875 2.1094 1.6094 2.5625 2.3281 5.8125 2.3281 9.6406 0 2.6875-0.35938 6.1406-2 9.125-0.78125 1.4062-1.6094 2.2344-2.0312 2.6562-0.015625 0.03125-0.046875 0.0625-0.046875 0.09375 0 0.09375 0.09375 0.09375 0.21875 0.09375 0.14062 0 0.15625 0 0.3125-0.15625 3.3281-3.0312 4.375-7.5938 4.375-11.797z" stroke-width=".99948"/>
     </g>
     <g transform="translate(464.75 160.07)">
      <path d="m3.2969 2.3906c0-0.03125 0-0.046875-0.17188-0.21875-1.2344-1.25-1.5625-3.1406-1.5625-4.6719 0-1.7344 0.375-3.4688 1.6094-4.7031 0.125-0.125 0.125-0.14062 0.125-0.17188 0-0.078125-0.03125-0.10938-0.09375-0.10938-0.10938 0-1 0.6875-1.5938 1.9531-0.5 1.0938-0.625 2.2031-0.625 3.0312 0 0.78125 0.10938 1.9844 0.65625 3.125 0.60938 1.2188 1.4531 1.875 1.5625 1.875 0.0625 0 0.09375-0.03125 0.09375-0.10938z" stroke-width=".99948"/>
     </g>
     <g transform="translate(468.62 160.07)">
      <path d="m2.9375-6.375c0-0.25 0-0.26562-0.23438-0.26562-0.625 0.64062-1.5 0.64062-1.8125 0.64062v0.3125c0.20312 0 0.78125 0 1.2969-0.26562v5.1719c0 0.35938-0.03125 0.46875-0.92188 0.46875h-0.3125v0.3125c0.34375-0.03125 1.2031-0.03125 1.6094-0.03125 0.39062 0 1.2656 0 1.6094 0.03125v-0.3125h-0.3125c-0.90625 0-0.92188-0.10938-0.92188-0.46875z" stroke-width=".99948"/>
     </g>
     <g transform="translate(473.6 160.07)">
      <path id="id-f3fae207-81dc-4e56-8be0-c8082f7705db" d="m2.875-2.5c0-0.76562-0.10938-1.9688-0.65625-3.1094-0.59375-1.2188-1.4531-1.875-1.5469-1.875-0.0625 0-0.10938 0.046875-0.10938 0.10938 0 0.03125 0 0.046875 0.1875 0.23438 0.98438 0.98438 1.5469 2.5625 1.5469 4.6406 0 1.7188-0.35938 3.4688-1.5938 4.7188-0.14062 0.125-0.14062 0.14062-0.14062 0.17188 0 0.0625 0.046875 0.10938 0.10938 0.10938 0.09375 0 1-0.6875 1.5781-1.9531 0.51562-1.0938 0.625-2.2031 0.625-3.0469z" stroke-width=".99948"/>
     </g>
     <g transform="translate(148.71 183.43)">
      <path d="m6.1719-3.3438c0.17188-0.5 0.48438-0.64062 0.84375-0.64062v-0.3125c-0.23438 0.015625-0.51562 0.03125-0.73438 0.03125-0.29688 0-0.73438-0.015625-0.92188-0.03125v0.3125c0.35938 0 0.57812 0.1875 0.57812 0.46875 0 0.0625 0 0.09375-0.0625 0.21875l-0.90625 2.5469-0.98438-2.7812c-0.03125-0.125-0.046875-0.14062-0.046875-0.1875 0-0.26562 0.39062-0.26562 0.59375-0.26562v-0.3125c-0.29688 0.015625-0.79688 0.03125-1.0469 0.03125-0.29688 0-0.57812-0.015625-0.875-0.03125v0.3125c0.35938 0 0.51562 0.015625 0.625 0.14062 0.046875 0.0625 0.15625 0.35938 0.21875 0.54688l-0.84375 2.4219-0.95312-2.6562c-0.046875-0.125-0.046875-0.14062-0.046875-0.1875 0-0.26562 0.39062-0.26562 0.57812-0.26562v-0.3125c-0.29688 0.015625-0.85938 0.03125-1.0781 0.03125-0.046875 0-0.57812-0.015625-0.9375-0.03125v0.3125c0.5 0 0.625 0.03125 0.75 0.34375l1.25 3.5312c0.046875 0.14062 0.078125 0.21875 0.20312 0.21875 0.14062 0 0.15625-0.0625 0.20312-0.20312l1.0156-2.8125 1.0156 2.8281c0.03125 0.10938 0.0625 0.1875 0.20312 0.1875 0.125 0 0.15625-0.09375 0.1875-0.1875z" stroke-width=".99948"/>
     </g>
     <g transform="translate(155.91 183.43)">
      <path d="m1.0938-0.75c0 0.4375-0.10938 0.4375-0.78125 0.4375v0.3125c0.35938-0.015625 0.85938-0.03125 1.1406-0.03125 0.25 0 0.76562 0.015625 1.1094 0.03125v-0.3125c-0.67188 0-0.78125 0-0.78125-0.4375v-1.8438c0-1.0312 0.71875-1.5938 1.3438-1.5938 0.64062 0 0.75 0.53125 0.75 1.1094v2.3281c0 0.4375-0.10938 0.4375-0.78125 0.4375v0.3125c0.34375-0.015625 0.85938-0.03125 1.125-0.03125 0.25 0 0.78125 0.015625 1.1094 0.03125v-0.3125c-0.51562 0-0.76562 0-0.76562-0.29688v-1.9062c0-0.85938 0-1.1562-0.3125-1.5156-0.14062-0.17188-0.46875-0.375-1.0469-0.375-0.84375 0-1.2812 0.59375-1.4531 0.98438v-3.5l-1.4375 0.10938v0.3125c0.70312 0 0.78125 0.0625 0.78125 0.5625z" stroke-width=".99948"/>
     </g>
     <g transform="translate(161.44 183.43)">
      <path id="id-94934d2c-197f-4452-8102-0b362776352d" d="m1.1094-2.5156c0.0625-1.4844 0.90625-1.7344 1.25-1.7344 1.0156 0 1.125 1.3438 1.125 1.7344zm0 0.21875h2.7812c0.21875 0 0.25 0 0.25-0.21875 0-0.98438-0.54688-1.9531-1.7812-1.9531-1.1562 0-2.0781 1.0312-2.0781 2.2812 0 1.3281 1.0469 2.2969 2.1875 2.2969 1.2188 0 1.6719-1.1094 1.6719-1.2969 0-0.09375-0.078125-0.125-0.14062-0.125-0.078125 0-0.10938 0.0625-0.125 0.14062-0.34375 1.0312-1.25 1.0312-1.3438 1.0312-0.5 0-0.89062-0.29688-1.125-0.67188-0.29688-0.46875-0.29688-1.125-0.29688-1.4844z" stroke-width=".99948"/>
     </g>
     <g transform="translate(165.87,183.43)">
      <path d="m1.6719-3.3125v-1.0938l-1.3906 0.10938v0.3125c0.70312 0 0.78125 0.0625 0.78125 0.5625v2.6719c0 0.4375-0.10938 0.4375-0.78125 0.4375v0.3125c0.39062-0.015625 0.85938-0.03125 1.1406-0.03125 0.39062 0 0.85938 0 1.2656 0.03125v-0.3125h-0.21875c-0.73438 0-0.75-0.10938-0.75-0.46875v-1.5312c0-0.98438 0.42188-1.875 1.1719-1.875 0.0625 0 0.09375 0 0.10938 0.015625-0.03125 0-0.23438 0.125-0.23438 0.39062s0.21875 0.42188 0.4375 0.42188c0.17188 0 0.42188-0.125 0.42188-0.4375s-0.3125-0.60938-0.73438-0.60938c-0.73438 0-1.0938 0.67188-1.2188 1.0938z" stroke-width=".99948"/>
     </g>
     <g transform="translate(169.77 183.43)">
      <path d="m1.1094-2.5156c0.0625-1.4844 0.90625-1.7344 1.25-1.7344 1.0156 0 1.125 1.3438 1.125 1.7344zm0 0.21875h2.7812c0.21875 0 0.25 0 0.25-0.21875 0-0.98438-0.54688-1.9531-1.7812-1.9531-1.1562 0-2.0781 1.0312-2.0781 2.2812 0 1.3281 1.0469 2.2969 2.1875 2.2969 1.2188 0 1.6719-1.1094 1.6719-1.2969 0-0.09375-0.078125-0.125-0.14062-0.125-0.078125 0-0.10938 0.0625-0.125 0.14062-0.34375 1.0312-1.25 1.0312-1.3438 1.0312-0.5 0-0.89062-0.29688-1.125-0.67188-0.29688-0.46875-0.29688-1.125-0.29688-1.4844z" stroke-width=".99948"/>
     </g>
     <g transform="translate(174.2 183.43)">
      <path d="m1.9062-3.7656c0-0.29688-0.23438-0.53125-0.51562-0.53125-0.29688 0-0.53125 0.23438-0.53125 0.53125 0 0.28125 0.23438 0.53125 0.53125 0.53125 0.28125 0 0.51562-0.25 0.51562-0.53125zm0 3.2344c0-0.28125-0.23438-0.53125-0.51562-0.53125-0.29688 0-0.53125 0.25-0.53125 0.53125 0 0.29688 0.23438 0.53125 0.53125 0.53125 0.28125 0 0.51562-0.23438 0.51562-0.53125z" stroke-width=".99948"/>
     </g>
    </g>
    <g id="id-26744f7d-2dbf-4ac5-86d9-8784212f9ced" transform="translate(-134.36 -124.81)">
     <g transform="translate(148.71 203.36)" stroke-width=".99948">
      <path id="id-567f5cf2-f3e7-46a9-9135-b7f372a7f26c" d="m2.3281-4.4375c-0.53125 0.078125-1.0156 0.29688-1.3438 0.71875-0.28125 0.34375-0.4375 0.78125-0.4375 1.2188 0 1.0312 0.85938 1.9375 1.9375 1.9375 1.0312 0 1.9375-0.875 1.9375-1.9375 0-0.96875-0.76562-1.9531-1.9531-1.9531-0.046875 0-0.09375 0.015625-0.14062 0.015625z" stroke-width=".99948"/>
     </g>
    </g>
    <g transform="translate(-134.36 -124.81)">
     <g transform="translate(158.68 203.36)">
      <path id="id-f432bf6e-ea4f-4e61-98cd-176e30c70aeb" d="m3.7344-6.0469c0.078125-0.35938 0.10938-0.45312 0.90625-0.45312 0.23438 0 0.3125 0 0.3125-0.1875 0-0.125-0.10938-0.125-0.14062-0.125-0.29688 0-1.0312 0.03125-1.3281 0.03125s-1.0156-0.03125-1.3281-0.03125c-0.0625 0-0.1875 0-0.1875 0.20312 0 0.10938 0.078125 0.10938 0.28125 0.10938 0.40625 0 0.6875 0 0.6875 0.1875 0 0.046875 0 0.078125-0.03125 0.15625l-1.3438 5.375c-0.09375 0.375-0.10938 0.46875-0.90625 0.46875-0.23438 0-0.3125 0-0.3125 0.20312 0 0.10938 0.10938 0.10938 0.14062 0.10938 0.29688 0 1.0156-0.03125 1.3125-0.03125s1.0312 0.03125 1.3281 0.03125c0.078125 0 0.20312 0 0.20312-0.1875 0-0.125-0.078125-0.125-0.29688-0.125-0.1875 0-0.23438 0-0.42188-0.015625-0.21875-0.015625-0.25-0.0625-0.25-0.17188 0-0.078125 0.015625-0.15625 0.03125-0.23438z" stroke-width=".99948"/>
     </g>
     <g transform="translate(163.05 204.85)">
      <path d="m3.5938-2.2188c0-0.76562-0.09375-1.3281-0.40625-1.8125-0.21875-0.3125-0.65625-0.59375-1.2031-0.59375-1.625 0-1.625 1.9062-1.625 2.4062s0 2.3594 1.625 2.3594c1.6094 0 1.6094-1.8594 1.6094-2.3594zm-1.6094 2.1562c-0.32812 0-0.75-0.1875-0.89062-0.75-0.09375-0.40625-0.09375-0.98438-0.09375-1.5s0-1.0469 0.09375-1.4219c0.15625-0.54688 0.59375-0.70312 0.89062-0.70312 0.375 0 0.73438 0.23438 0.85938 0.64062 0.10938 0.375 0.125 0.875 0.125 1.4844 0 0.51562 0 1.0312-0.09375 1.4688-0.14062 0.64062-0.60938 0.78125-0.89062 0.78125z" stroke-width=".99948"/>
     </g>
     <g transform="translate(170.84 203.36)">
      <path id="id-dbe21058-c638-4af3-aa85-95e6b33f5faf" d="m1.7656-4.4062-1.3906 0.10938v0.3125c0.64062 0 0.73438 0.0625 0.73438 0.54688v2.6875c0 0.4375-0.10938 0.4375-0.78125 0.4375v0.3125c0.3125-0.015625 0.85938-0.03125 1.0938-0.03125 0.35938 0 0.70312 0.015625 1.0469 0.03125v-0.3125c-0.67188 0-0.70312-0.046875-0.70312-0.4375zm0.03125-1.7344c0-0.3125-0.23438-0.53125-0.51562-0.53125-0.3125 0-0.53125 0.26562-0.53125 0.53125s0.21875 0.53125 0.53125 0.53125c0.28125 0 0.51562-0.21875 0.51562-0.53125z" stroke-width=".99948"/>
     </g>
     <g transform="translate(173.61 203.36)">
      <path d="m2.0781-1.9375c0.21875 0.046875 1.0312 0.20312 1.0312 0.92188 0 0.5-0.34375 0.90625-1.125 0.90625-0.84375 0-1.2031-0.5625-1.3906-1.4219-0.03125-0.125-0.03125-0.15625-0.14062-0.15625-0.125 0-0.125 0.0625-0.125 0.23438v1.3281c0 0.17188 0 0.23438 0.10938 0.23438 0.046875 0 0.0625-0.015625 0.25-0.20312 0.015625-0.015625 0.015625-0.03125 0.20312-0.21875 0.4375 0.40625 0.89062 0.42188 1.0938 0.42188 1.1406 0 1.6094-0.67188 1.6094-1.3906 0-0.51562-0.29688-0.82812-0.42188-0.9375-0.32812-0.32812-0.71875-0.40625-1.1406-0.48438-0.5625-0.10938-1.2188-0.23438-1.2188-0.8125 0-0.35938 0.25-0.76562 1.1094-0.76562 1.0938 0 1.1562 0.90625 1.1719 1.2031 0 0.09375 0.09375 0.09375 0.10938 0.09375 0.14062 0 0.14062-0.046875 0.14062-0.23438v-1.0156c0-0.15625 0-0.23438-0.10938-0.23438-0.046875 0-0.078125 0-0.20312 0.125-0.03125 0.03125-0.125 0.125-0.17188 0.15625-0.375-0.28125-0.78125-0.28125-0.9375-0.28125-1.2188 0-1.5938 0.67188-1.5938 1.2344 0 0.34375 0.15625 0.625 0.42188 0.84375 0.32812 0.25 0.60938 0.3125 1.3281 0.45312z" stroke-width=".99948"/>
     </g>
     <g transform="translate(180.86 203.36)">
      <path d="m1.7188-3.9844h1.4375v-0.3125h-1.4375v-1.8281h-0.25c0 0.8125-0.29688 1.875-1.2812 1.9219v0.21875h0.84375v2.75c0 1.2188 0.9375 1.3438 1.2969 1.3438 0.70312 0 0.98438-0.70312 0.98438-1.3438v-0.5625h-0.25v0.54688c0 0.73438-0.29688 1.1094-0.67188 1.1094-0.67188 0-0.67188-0.90625-0.67188-1.0781z" stroke-width=".99948"/>
     </g>
     <g transform="translate(184.73 203.36)">
      <path id="id-791b333c-4e83-45d6-8a8f-cdb4b64607db" d="m1.0938-0.75c0 0.4375-0.10938 0.4375-0.78125 0.4375v0.3125c0.35938-0.015625 0.85938-0.03125 1.1406-0.03125 0.25 0 0.76562 0.015625 1.1094 0.03125v-0.3125c-0.67188 0-0.78125 0-0.78125-0.4375v-1.8438c0-1.0312 0.71875-1.5938 1.3438-1.5938 0.64062 0 0.75 0.53125 0.75 1.1094v2.3281c0 0.4375-0.10938 0.4375-0.78125 0.4375v0.3125c0.34375-0.015625 0.85938-0.03125 1.125-0.03125 0.25 0 0.78125 0.015625 1.1094 0.03125v-0.3125c-0.51562 0-0.76562 0-0.76562-0.29688v-1.9062c0-0.85938 0-1.1562-0.3125-1.5156-0.14062-0.17188-0.46875-0.375-1.0469-0.375-0.84375 0-1.2812 0.59375-1.4531 0.98438v-3.5l-1.4375 0.10938v0.3125c0.70312 0 0.78125 0.0625 0.78125 0.5625z" stroke-width=".99948"/>
     </g>
     <g transform="translate(190.27 203.36)">
      <path d="m1.1094-2.5156c0.0625-1.4844 0.90625-1.7344 1.25-1.7344 1.0156 0 1.125 1.3438 1.125 1.7344zm0 0.21875h2.7812c0.21875 0 0.25 0 0.25-0.21875 0-0.98438-0.54688-1.9531-1.7812-1.9531-1.1562 0-2.0781 1.0312-2.0781 2.2812 0 1.3281 1.0469 2.2969 2.1875 2.2969 1.2188 0 1.6719-1.1094 1.6719-1.2969 0-0.09375-0.078125-0.125-0.14062-0.125-0.078125 0-0.10938 0.0625-0.125 0.14062-0.34375 1.0312-1.25 1.0312-1.3438 1.0312-0.5 0-0.89062-0.29688-1.125-0.67188-0.29688-0.46875-0.29688-1.125-0.29688-1.4844z" stroke-width=".99948"/>
     </g>
     <g transform="translate(198.02 203.36)">
      <path id="id-0f1e7b3e-1fab-40bc-81b7-78223a834b8a" d="m1.7656-4.4062-1.3906 0.10938v0.3125c0.64062 0 0.73438 0.0625 0.73438 0.54688v2.6875c0 0.4375-0.10938 0.4375-0.78125 0.4375v0.3125c0.3125-0.015625 0.85938-0.03125 1.0938-0.03125 0.35938 0 0.70312 0.015625 1.0469 0.03125v-0.3125c-0.67188 0-0.70312-0.046875-0.70312-0.4375zm0.03125-1.7344c0-0.3125-0.23438-0.53125-0.51562-0.53125-0.3125 0-0.53125 0.26562-0.53125 0.53125s0.21875 0.53125 0.53125 0.53125c0.28125 0 0.51562-0.21875 0.51562-0.53125z" stroke-width=".99948"/>
     </g>
     <g transform="translate(200.79 203.36)">
      <path d="m1.0938-3.4219v2.6719c0 0.4375-0.10938 0.4375-0.78125 0.4375v0.3125c0.35938-0.015625 0.85938-0.03125 1.1406-0.03125 0.25 0 0.76562 0.015625 1.1094 0.03125v-0.3125c-0.67188 0-0.78125 0-0.78125-0.4375v-1.8438c0-1.0312 0.71875-1.5938 1.3438-1.5938 0.64062 0 0.75 0.53125 0.75 1.1094v2.3281c0 0.4375-0.10938 0.4375-0.78125 0.4375v0.3125c0.34375-0.015625 0.85938-0.03125 1.125-0.03125 0.25 0 0.78125 0.015625 1.1094 0.03125v-0.3125c-0.51562 0-0.76562 0-0.76562-0.29688v-1.9062c0-0.85938 0-1.1562-0.3125-1.5156-0.14062-0.17188-0.46875-0.375-1.0469-0.375-0.73438 0-1.2031 0.42188-1.4844 1.0469v-1.0469l-1.4062 0.10938v0.3125c0.70312 0 0.78125 0.0625 0.78125 0.5625z" stroke-width=".99948"/>
     </g>
     <g transform="translate(206.33 203.36)">
      <path d="m1.1719-2.1719c0-1.625 0.8125-2.0469 1.3438-2.0469 0.09375 0 0.71875 0.015625 1.0625 0.375-0.40625 0.03125-0.46875 0.32812-0.46875 0.45312 0 0.26562 0.1875 0.45312 0.45312 0.45312s0.46875-0.15625 0.46875-0.46875c0-0.67188-0.76562-1.0625-1.5312-1.0625-1.25 0-2.1562 1.0781-2.1562 2.3125 0 1.2812 0.98438 2.2656 2.1406 2.2656 1.3281 0 1.6562-1.2031 1.6562-1.2969s-0.10938-0.09375-0.14062-0.09375c-0.078125 0-0.10938 0.03125-0.125 0.09375-0.28125 0.92188-0.9375 1.0469-1.2969 1.0469-0.53125 0-1.4062-0.42188-1.4062-2.0312z" stroke-width=".99948"/>
     </g>
     <g transform="translate(210.75 203.36)">
      <path id="id-b34650b0-7580-42d5-a022-9f5ff12437ac" d="m1.7656-4.4062-1.3906 0.10938v0.3125c0.64062 0 0.73438 0.0625 0.73438 0.54688v2.6875c0 0.4375-0.10938 0.4375-0.78125 0.4375v0.3125c0.3125-0.015625 0.85938-0.03125 1.0938-0.03125 0.35938 0 0.70312 0.015625 1.0469 0.03125v-0.3125c-0.67188 0-0.70312-0.046875-0.70312-0.4375zm0.03125-1.7344c0-0.3125-0.23438-0.53125-0.51562-0.53125-0.3125 0-0.53125 0.26562-0.53125 0.53125s0.21875 0.53125 0.53125 0.53125c0.28125 0 0.51562-0.21875 0.51562-0.53125z" stroke-width=".99948"/>
     </g>
     <g transform="translate(213.52 203.36)">
      <path id="id-380be990-0f68-4e9b-b449-9d06efa7e93e" d="m3.7812-0.54688v0.65625l1.4688-0.10938v-0.3125c-0.6875 0-0.78125-0.0625-0.78125-0.5625v-6.0469l-1.4219 0.10938v0.3125c0.6875 0 0.76562 0.0625 0.76562 0.5625v2.1562c-0.28125-0.35938-0.71875-0.625-1.25-0.625-1.1719 0-2.2188 0.98438-2.2188 2.2656 0 1.2656 0.96875 2.25 2.1094 2.25 0.64062 0 1.0781-0.34375 1.3281-0.65625zm0-2.6719v2.0469c0 0.17188 0 0.1875-0.10938 0.35938-0.29688 0.48438-0.73438 0.70312-1.1719 0.70312-0.45312 0-0.8125-0.26562-1.0469-0.64062-0.25-0.40625-0.28125-0.96875-0.28125-1.3906 0-0.35938 0.015625-0.95312 0.29688-1.4062 0.21875-0.3125 0.59375-0.64062 1.1406-0.64062 0.34375 0 0.76562 0.15625 1.0625 0.59375 0.10938 0.17188 0.10938 0.1875 0.10938 0.375z" stroke-width=".99948"/>
     </g>
     <g transform="translate(219.06 203.36)">
      <path d="m1.1094-2.5156c0.0625-1.4844 0.90625-1.7344 1.25-1.7344 1.0156 0 1.125 1.3438 1.125 1.7344zm0 0.21875h2.7812c0.21875 0 0.25 0 0.25-0.21875 0-0.98438-0.54688-1.9531-1.7812-1.9531-1.1562 0-2.0781 1.0312-2.0781 2.2812 0 1.3281 1.0469 2.2969 2.1875 2.2969 1.2188 0 1.6719-1.1094 1.6719-1.2969 0-0.09375-0.078125-0.125-0.14062-0.125-0.078125 0-0.10938 0.0625-0.125 0.14062-0.34375 1.0312-1.25 1.0312-1.3438 1.0312-0.5 0-0.89062-0.29688-1.125-0.67188-0.29688-0.46875-0.29688-1.125-0.29688-1.4844z" stroke-width=".99948"/>
     </g>
     <g transform="translate(223.48 203.36)">
      <path d="m1.0938-3.4219v2.6719c0 0.4375-0.10938 0.4375-0.78125 0.4375v0.3125c0.35938-0.015625 0.85938-0.03125 1.1406-0.03125 0.25 0 0.76562 0.015625 1.1094 0.03125v-0.3125c-0.67188 0-0.78125 0-0.78125-0.4375v-1.8438c0-1.0312 0.71875-1.5938 1.3438-1.5938 0.64062 0 0.75 0.53125 0.75 1.1094v2.3281c0 0.4375-0.10938 0.4375-0.78125 0.4375v0.3125c0.34375-0.015625 0.85938-0.03125 1.125-0.03125 0.25 0 0.78125 0.015625 1.1094 0.03125v-0.3125c-0.51562 0-0.76562 0-0.76562-0.29688v-1.9062c0-0.85938 0-1.1562-0.3125-1.5156-0.14062-0.17188-0.46875-0.375-1.0469-0.375-0.73438 0-1.2031 0.42188-1.4844 1.0469v-1.0469l-1.4062 0.10938v0.3125c0.70312 0 0.78125 0.0625 0.78125 0.5625z" stroke-width=".99948"/>
     </g>
    </g>
    <g id="id-b7edb421-c6c4-441f-a0a5-8ed347d075cf" transform="translate(-134.36 -124.81)">
     <g transform="translate(228.74 203.36)" stroke-width=".99948">
      <path d="m1.7188-3.9844h1.4375v-0.3125h-1.4375v-1.8281h-0.25c0 0.8125-0.29688 1.875-1.2812 1.9219v0.21875h0.84375v2.75c0 1.2188 0.9375 1.3438 1.2969 1.3438 0.70312 0 0.98438-0.70312 0.98438-1.3438v-0.5625h-0.25v0.54688c0 0.73438-0.29688 1.1094-0.67188 1.1094-0.67188 0-0.67188-0.90625-0.67188-1.0781z" stroke-width=".99948"/>
     </g>
    </g>
    <g id="id-928c4072-8074-4ddf-9153-84771a54798f" transform="translate(-134.36 -124.81)">
     <g transform="translate(235.93 203.36)">
      <path d="m1.7656-6.9219-1.4375 0.10938v0.3125c0.70312 0 0.78125 0.0625 0.78125 0.5625v5.1875c0 0.4375-0.10938 0.4375-0.78125 0.4375v0.3125c0.32812-0.015625 0.85938-0.03125 1.1094-0.03125s0.73438 0.015625 1.1094 0.03125v-0.3125c-0.67188 0-0.78125 0-0.78125-0.4375z" stroke-width=".99948"/>
     </g>
     <g transform="translate(238.7 203.36)">
      <path d="m1.7656-4.4062-1.3906 0.10938v0.3125c0.64062 0 0.73438 0.0625 0.73438 0.54688v2.6875c0 0.4375-0.10938 0.4375-0.78125 0.4375v0.3125c0.3125-0.015625 0.85938-0.03125 1.0938-0.03125 0.35938 0 0.70312 0.015625 1.0469 0.03125v-0.3125c-0.67188 0-0.70312-0.046875-0.70312-0.4375zm0.03125-1.7344c0-0.3125-0.23438-0.53125-0.51562-0.53125-0.3125 0-0.53125 0.26562-0.53125 0.53125s0.21875 0.53125 0.53125 0.53125c0.28125 0 0.51562-0.21875 0.51562-0.53125z" stroke-width=".99948"/>
     </g>
     <g transform="translate(241.47 203.36)">
      <path d="m2.2188-1.7188c-0.875 0-0.875-1-0.875-1.2188 0-0.26562 0.015625-0.59375 0.15625-0.84375 0.078125-0.10938 0.3125-0.39062 0.71875-0.39062 0.85938 0 0.85938 0.98438 0.85938 1.2188 0 0.26562 0 0.59375-0.15625 0.84375-0.078125 0.10938-0.3125 0.39062-0.70312 0.39062zm-1.1562 0.39062c0-0.03125 0-0.26562 0.15625-0.46875 0.39062 0.28125 0.8125 0.3125 1 0.3125 0.92188 0 1.6094-0.6875 1.6094-1.4531 0-0.375-0.15625-0.73438-0.40625-0.96875 0.35938-0.34375 0.71875-0.39062 0.89062-0.39062 0.03125 0 0.078125 0 0.10938 0.015625-0.10938 0.03125-0.17188 0.14062-0.17188 0.26562 0 0.17188 0.14062 0.28125 0.29688 0.28125 0.09375 0 0.28125-0.0625 0.28125-0.29688 0-0.17188-0.10938-0.48438-0.5-0.48438-0.20312 0-0.64062 0.0625-1.0625 0.46875-0.42188-0.32812-0.82812-0.35938-1.0469-0.35938-0.9375 0-1.625 0.6875-1.625 1.4531 0 0.4375 0.21875 0.8125 0.46875 1.0312-0.125 0.14062-0.3125 0.46875-0.3125 0.82812 0 0.3125 0.14062 0.6875 0.45312 0.89062-0.60938 0.15625-0.92188 0.59375-0.92188 0.98438 0 0.71875 0.98438 1.2656 2.2031 1.2656 1.1719 0 2.2031-0.5 2.2031-1.2812 0-0.34375-0.125-0.85938-0.64062-1.1406-0.53125-0.26562-1.1094-0.26562-1.7188-0.26562-0.25 0-0.67188 0-0.75-0.015625-0.3125-0.046875-0.51562-0.34375-0.51562-0.67188zm1.4375 3.1562c-1.0156 0-1.7031-0.51562-1.7031-1.0469 0-0.45312 0.375-0.82812 0.8125-0.84375h0.59375c0.85938 0 1.9688 0 1.9688 0.84375 0 0.54688-0.70312 1.0469-1.6719 1.0469z" stroke-width=".99948"/>
     </g>
     <g transform="translate(246.45 203.36)">
      <path d="m1.0938-0.75c0 0.4375-0.10938 0.4375-0.78125 0.4375v0.3125c0.35938-0.015625 0.85938-0.03125 1.1406-0.03125 0.25 0 0.76562 0.015625 1.1094 0.03125v-0.3125c-0.67188 0-0.78125 0-0.78125-0.4375v-1.8438c0-1.0312 0.71875-1.5938 1.3438-1.5938 0.64062 0 0.75 0.53125 0.75 1.1094v2.3281c0 0.4375-0.10938 0.4375-0.78125 0.4375v0.3125c0.34375-0.015625 0.85938-0.03125 1.125-0.03125 0.25 0 0.78125 0.015625 1.1094 0.03125v-0.3125c-0.51562 0-0.76562 0-0.76562-0.29688v-1.9062c0-0.85938 0-1.1562-0.3125-1.5156-0.14062-0.17188-0.46875-0.375-1.0469-0.375-0.84375 0-1.2812 0.59375-1.4531 0.98438v-3.5l-1.4375 0.10938v0.3125c0.70312 0 0.78125 0.0625 0.78125 0.5625z" stroke-width=".99948"/>
     </g>
    </g>
    <g id="id-de2ff056-643c-41ae-b59f-0eeba26b066a" transform="translate(-134.36 -124.81)">
     <g transform="translate(251.7 203.36)" stroke-width=".99948">
      <path id="id-9a487ecf-3a5c-4333-b78a-b55016108ebb" d="m1.7188-3.9844h1.4375v-0.3125h-1.4375v-1.8281h-0.25c0 0.8125-0.29688 1.875-1.2812 1.9219v0.21875h0.84375v2.75c0 1.2188 0.9375 1.3438 1.2969 1.3438 0.70312 0 0.98438-0.70312 0.98438-1.3438v-0.5625h-0.25v0.54688c0 0.73438-0.29688 1.1094-0.67188 1.1094-0.67188 0-0.67188-0.90625-0.67188-1.0781z" stroke-width=".99948"/>
     </g>
    </g>
    <g transform="translate(-134.36 -124.81)">
     <g transform="translate(258.91 203.36)">
      <path d="m1.7656-4.4062-1.3906 0.10938v0.3125c0.64062 0 0.73438 0.0625 0.73438 0.54688v2.6875c0 0.4375-0.10938 0.4375-0.78125 0.4375v0.3125c0.3125-0.015625 0.85938-0.03125 1.0938-0.03125 0.35938 0 0.70312 0.015625 1.0469 0.03125v-0.3125c-0.67188 0-0.70312-0.046875-0.70312-0.4375zm0.03125-1.7344c0-0.3125-0.23438-0.53125-0.51562-0.53125-0.3125 0-0.53125 0.26562-0.53125 0.53125s0.21875 0.53125 0.53125 0.53125c0.28125 0 0.51562-0.21875 0.51562-0.53125z" stroke-width=".99948"/>
     </g>
     <g transform="translate(261.68 203.36)">
      <path id="id-b9570421-c5e0-47d7-8a56-285c4851bcda" d="m1.0938-3.4219v2.6719c0 0.4375-0.10938 0.4375-0.78125 0.4375v0.3125c0.35938-0.015625 0.85938-0.03125 1.1406-0.03125 0.25 0 0.76562 0.015625 1.1094 0.03125v-0.3125c-0.67188 0-0.78125 0-0.78125-0.4375v-1.8438c0-1.0312 0.71875-1.5938 1.3438-1.5938 0.64062 0 0.75 0.53125 0.75 1.1094v2.3281c0 0.4375-0.10938 0.4375-0.78125 0.4375v0.3125c0.34375-0.015625 0.85938-0.03125 1.125-0.03125 0.25 0 0.78125 0.015625 1.1094 0.03125v-0.3125c-0.51562 0-0.76562 0-0.76562-0.29688v-1.9062c0-0.85938 0-1.1562-0.3125-1.5156-0.14062-0.17188-0.46875-0.375-1.0469-0.375-0.73438 0-1.2031 0.42188-1.4844 1.0469v-1.0469l-1.4062 0.10938v0.3125c0.70312 0 0.78125 0.0625 0.78125 0.5625z" stroke-width=".99948"/>
     </g>
     <g transform="translate(266.93 203.36)">
      <path id="id-7df1fc11-9c41-4f3f-af8f-61b99b554d9c" d="m1.7188-3.9844h1.4375v-0.3125h-1.4375v-1.8281h-0.25c0 0.8125-0.29688 1.875-1.2812 1.9219v0.21875h0.84375v2.75c0 1.2188 0.9375 1.3438 1.2969 1.3438 0.70312 0 0.98438-0.70312 0.98438-1.3438v-0.5625h-0.25v0.54688c0 0.73438-0.29688 1.1094-0.67188 1.1094-0.67188 0-0.67188-0.90625-0.67188-1.0781z" stroke-width=".99948"/>
     </g>
     <g transform="translate(270.81 203.36)">
      <path id="id-5dfccb21-c103-463b-ad4c-001fab2801ca" d="m1.1094-2.5156c0.0625-1.4844 0.90625-1.7344 1.25-1.7344 1.0156 0 1.125 1.3438 1.125 1.7344zm0 0.21875h2.7812c0.21875 0 0.25 0 0.25-0.21875 0-0.98438-0.54688-1.9531-1.7812-1.9531-1.1562 0-2.0781 1.0312-2.0781 2.2812 0 1.3281 1.0469 2.2969 2.1875 2.2969 1.2188 0 1.6719-1.1094 1.6719-1.2969 0-0.09375-0.078125-0.125-0.14062-0.125-0.078125 0-0.10938 0.0625-0.125 0.14062-0.34375 1.0312-1.25 1.0312-1.3438 1.0312-0.5 0-0.89062-0.29688-1.125-0.67188-0.29688-0.46875-0.29688-1.125-0.29688-1.4844z" stroke-width=".99948"/>
     </g>
     <g transform="translate(275.23 203.36)">
      <path d="m1.0938-3.4219v2.6719c0 0.4375-0.10938 0.4375-0.78125 0.4375v0.3125c0.35938-0.015625 0.85938-0.03125 1.1406-0.03125 0.25 0 0.76562 0.015625 1.1094 0.03125v-0.3125c-0.67188 0-0.78125 0-0.78125-0.4375v-1.8438c0-1.0312 0.71875-1.5938 1.3438-1.5938 0.64062 0 0.75 0.53125 0.75 1.1094v2.3281c0 0.4375-0.10938 0.4375-0.78125 0.4375v0.3125c0.34375-0.015625 0.85938-0.03125 1.125-0.03125 0.25 0 0.78125 0.015625 1.1094 0.03125v-0.3125c-0.51562 0-0.76562 0-0.76562-0.29688v-1.9062c0-0.85938 0-1.1562-0.3125-1.5156-0.14062-0.17188-0.46875-0.375-1.0469-0.375-0.73438 0-1.2031 0.42188-1.4844 1.0469v-1.0469l-1.4062 0.10938v0.3125c0.70312 0 0.78125 0.0625 0.78125 0.5625z" stroke-width=".99948"/>
     </g>
     <g transform="translate(280.77 203.36)">
      <path id="id-27127fda-05e4-4603-a23e-4e05fe272dbc" d="m2.0781-1.9375c0.21875 0.046875 1.0312 0.20312 1.0312 0.92188 0 0.5-0.34375 0.90625-1.125 0.90625-0.84375 0-1.2031-0.5625-1.3906-1.4219-0.03125-0.125-0.03125-0.15625-0.14062-0.15625-0.125 0-0.125 0.0625-0.125 0.23438v1.3281c0 0.17188 0 0.23438 0.10938 0.23438 0.046875 0 0.0625-0.015625 0.25-0.20312 0.015625-0.015625 0.015625-0.03125 0.20312-0.21875 0.4375 0.40625 0.89062 0.42188 1.0938 0.42188 1.1406 0 1.6094-0.67188 1.6094-1.3906 0-0.51562-0.29688-0.82812-0.42188-0.9375-0.32812-0.32812-0.71875-0.40625-1.1406-0.48438-0.5625-0.10938-1.2188-0.23438-1.2188-0.8125 0-0.35938 0.25-0.76562 1.1094-0.76562 1.0938 0 1.1562 0.90625 1.1719 1.2031 0 0.09375 0.09375 0.09375 0.10938 0.09375 0.14062 0 0.14062-0.046875 0.14062-0.23438v-1.0156c0-0.15625 0-0.23438-0.10938-0.23438-0.046875 0-0.078125 0-0.20312 0.125-0.03125 0.03125-0.125 0.125-0.17188 0.15625-0.375-0.28125-0.78125-0.28125-0.9375-0.28125-1.2188 0-1.5938 0.67188-1.5938 1.2344 0 0.34375 0.15625 0.625 0.42188 0.84375 0.32812 0.25 0.60938 0.3125 1.3281 0.45312z" stroke-width=".99948"/>
     </g>
     <g transform="translate(284.7 203.36)">
      <path d="m1.7656-4.4062-1.3906 0.10938v0.3125c0.64062 0 0.73438 0.0625 0.73438 0.54688v2.6875c0 0.4375-0.10938 0.4375-0.78125 0.4375v0.3125c0.3125-0.015625 0.85938-0.03125 1.0938-0.03125 0.35938 0 0.70312 0.015625 1.0469 0.03125v-0.3125c-0.67188 0-0.70312-0.046875-0.70312-0.4375zm0.03125-1.7344c0-0.3125-0.23438-0.53125-0.51562-0.53125-0.3125 0-0.53125 0.26562-0.53125 0.53125s0.21875 0.53125 0.53125 0.53125c0.28125 0 0.51562-0.21875 0.51562-0.53125z" stroke-width=".99948"/>
     </g>
     <g transform="translate(287.46 203.36)">
      <path d="m1.7188-3.9844h1.4375v-0.3125h-1.4375v-1.8281h-0.25c0 0.8125-0.29688 1.875-1.2812 1.9219v0.21875h0.84375v2.75c0 1.2188 0.9375 1.3438 1.2969 1.3438 0.70312 0 0.98438-0.70312 0.98438-1.3438v-0.5625h-0.25v0.54688c0 0.73438-0.29688 1.1094-0.67188 1.1094-0.67188 0-0.67188-0.90625-0.67188-1.0781z" stroke-width=".99948"/>
     </g>
     <g transform="translate(291.06 203.36)">
      <path d="m4.1406-3.3438c0.25-0.64062 0.76562-0.64062 0.92188-0.64062v-0.3125c-0.23438 0.015625-0.51562 0.03125-0.75 0.03125-0.17188 0-0.64062-0.015625-0.85938-0.03125v0.3125c0.3125 0 0.46875 0.17188 0.46875 0.42188 0 0.10938-0.015625 0.125-0.0625 0.25l-1.0156 2.4375-1.0938-2.6719c-0.046875-0.10938-0.0625-0.14062-0.0625-0.1875 0-0.25 0.35938-0.25 0.5625-0.25v-0.3125c-0.26562 0.015625-0.92188 0.03125-1.0938 0.03125-0.26562 0-0.67188-0.015625-0.96875-0.03125v0.3125c0.48438 0 0.67188 0 0.8125 0.34375l1.5 3.6406c-0.0625 0.125-0.20312 0.45312-0.25 0.59375-0.21875 0.54688-0.5 1.2344-1.1406 1.2344-0.046875 0-0.28125 0-0.46875-0.1875 0.3125-0.03125 0.39062-0.25 0.39062-0.42188 0-0.25-0.1875-0.40625-0.42188-0.40625-0.20312 0-0.42188 0.125-0.42188 0.42188 0 0.45312 0.42188 0.8125 0.92188 0.8125 0.625 0 1.0312-0.57812 1.2656-1.1406z" stroke-width=".99948"/>
     </g>
     <g transform="translate(295.49 203.36)">
      <path d="m2.0312-0.015625c0-0.625-0.25-1.0469-0.64062-1.0469-0.35938 0-0.53125 0.28125-0.53125 0.53125 0 0.26562 0.17188 0.53125 0.53125 0.53125 0.15625 0 0.28125-0.0625 0.375-0.14062l0.015625-0.015625c0.015625 0 0.015625 0 0.015625 0.14062 0 0.64062-0.26562 1.25-0.70312 1.7188-0.0625 0.0625-0.078125 0.078125-0.078125 0.10938 0 0.078125 0.046875 0.10938 0.09375 0.10938 0.125 0 0.92188-0.78125 0.92188-1.9375z" stroke-width=".99948"/>
     </g>
     <g transform="translate(148.71 223.28)">
      <path d="m2.3281-4.4375c-0.53125 0.078125-1.0156 0.29688-1.3438 0.71875-0.28125 0.34375-0.4375 0.78125-0.4375 1.2188 0 1.0312 0.85938 1.9375 1.9375 1.9375 1.0312 0 1.9375-0.875 1.9375-1.9375 0-0.96875-0.76562-1.9531-1.9531-1.9531-0.046875 0-0.09375 0.015625-0.14062 0.015625z" stroke-width=".99948"/>
     </g>
     <g transform="translate(158.68 223.28)">
      <path id="id-8f55fcaa-b91e-4006-8388-f04c8334ab0c" d="m3.7344-6.0469c0.078125-0.35938 0.10938-0.45312 0.90625-0.45312 0.23438 0 0.3125 0 0.3125-0.1875 0-0.125-0.10938-0.125-0.14062-0.125-0.29688 0-1.0312 0.03125-1.3281 0.03125s-1.0156-0.03125-1.3281-0.03125c-0.0625 0-0.1875 0-0.1875 0.20312 0 0.10938 0.078125 0.10938 0.28125 0.10938 0.40625 0 0.6875 0 0.6875 0.1875 0 0.046875 0 0.078125-0.03125 0.15625l-1.3438 5.375c-0.09375 0.375-0.10938 0.46875-0.90625 0.46875-0.23438 0-0.3125 0-0.3125 0.20312 0 0.10938 0.10938 0.10938 0.14062 0.10938 0.29688 0 1.0156-0.03125 1.3125-0.03125s1.0312 0.03125 1.3281 0.03125c0.078125 0 0.20312 0 0.20312-0.1875 0-0.125-0.078125-0.125-0.29688-0.125-0.1875 0-0.23438 0-0.42188-0.015625-0.21875-0.015625-0.25-0.0625-0.25-0.17188 0-0.078125 0.015625-0.15625 0.03125-0.23438z" stroke-width=".99948"/>
     </g>
    </g>
    <g id="id-cefb72dd-e497-47b2-9311-78f571cb86cb" transform="translate(-134.36 -124.81)">
     <g transform="translate(167.16 223.28)">
      <path d="m1.7656-4.4062-1.3906 0.10938v0.3125c0.64062 0 0.73438 0.0625 0.73438 0.54688v2.6875c0 0.4375-0.10938 0.4375-0.78125 0.4375v0.3125c0.3125-0.015625 0.85938-0.03125 1.0938-0.03125 0.35938 0 0.70312 0.015625 1.0469 0.03125v-0.3125c-0.67188 0-0.70312-0.046875-0.70312-0.4375zm0.03125-1.7344c0-0.3125-0.23438-0.53125-0.51562-0.53125-0.3125 0-0.53125 0.26562-0.53125 0.53125s0.21875 0.53125 0.53125 0.53125c0.28125 0 0.51562-0.21875 0.51562-0.53125z" stroke-width=".99948"/>
     </g>
     <g transform="translate(169.92 223.28)">
      <path d="m2.0781-1.9375c0.21875 0.046875 1.0312 0.20312 1.0312 0.92188 0 0.5-0.34375 0.90625-1.125 0.90625-0.84375 0-1.2031-0.5625-1.3906-1.4219-0.03125-0.125-0.03125-0.15625-0.14062-0.15625-0.125 0-0.125 0.0625-0.125 0.23438v1.3281c0 0.17188 0 0.23438 0.10938 0.23438 0.046875 0 0.0625-0.015625 0.25-0.20312 0.015625-0.015625 0.015625-0.03125 0.20312-0.21875 0.4375 0.40625 0.89062 0.42188 1.0938 0.42188 1.1406 0 1.6094-0.67188 1.6094-1.3906 0-0.51562-0.29688-0.82812-0.42188-0.9375-0.32812-0.32812-0.71875-0.40625-1.1406-0.48438-0.5625-0.10938-1.2188-0.23438-1.2188-0.8125 0-0.35938 0.25-0.76562 1.1094-0.76562 1.0938 0 1.1562 0.90625 1.1719 1.2031 0 0.09375 0.09375 0.09375 0.10938 0.09375 0.14062 0 0.14062-0.046875 0.14062-0.23438v-1.0156c0-0.15625 0-0.23438-0.10938-0.23438-0.046875 0-0.078125 0-0.20312 0.125-0.03125 0.03125-0.125 0.125-0.17188 0.15625-0.375-0.28125-0.78125-0.28125-0.9375-0.28125-1.2188 0-1.5938 0.67188-1.5938 1.2344 0 0.34375 0.15625 0.625 0.42188 0.84375 0.32812 0.25 0.60938 0.3125 1.3281 0.45312z" stroke-width=".99948"/>
     </g>
    </g>
    <g id="id-e2b2fce1-e115-46d1-b0d9-a2d3c1b300bc" transform="translate(-134.36 -124.81)">
     <g transform="translate(177.17 223.28)">
      <path d="m1.7188-3.9844h1.4375v-0.3125h-1.4375v-1.8281h-0.25c0 0.8125-0.29688 1.875-1.2812 1.9219v0.21875h0.84375v2.75c0 1.2188 0.9375 1.3438 1.2969 1.3438 0.70312 0 0.98438-0.70312 0.98438-1.3438v-0.5625h-0.25v0.54688c0 0.73438-0.29688 1.1094-0.67188 1.1094-0.67188 0-0.67188-0.90625-0.67188-1.0781z" stroke-width=".99948"/>
     </g>
     <g transform="translate(181.05 223.28)">
      <path d="m1.0938-0.75c0 0.4375-0.10938 0.4375-0.78125 0.4375v0.3125c0.35938-0.015625 0.85938-0.03125 1.1406-0.03125 0.25 0 0.76562 0.015625 1.1094 0.03125v-0.3125c-0.67188 0-0.78125 0-0.78125-0.4375v-1.8438c0-1.0312 0.71875-1.5938 1.3438-1.5938 0.64062 0 0.75 0.53125 0.75 1.1094v2.3281c0 0.4375-0.10938 0.4375-0.78125 0.4375v0.3125c0.34375-0.015625 0.85938-0.03125 1.125-0.03125 0.25 0 0.78125 0.015625 1.1094 0.03125v-0.3125c-0.51562 0-0.76562 0-0.76562-0.29688v-1.9062c0-0.85938 0-1.1562-0.3125-1.5156-0.14062-0.17188-0.46875-0.375-1.0469-0.375-0.84375 0-1.2812 0.59375-1.4531 0.98438v-3.5l-1.4375 0.10938v0.3125c0.70312 0 0.78125 0.0625 0.78125 0.5625z" stroke-width=".99948"/>
     </g>
     <g transform="translate(186.58 223.28)">
      <path id="id-318ec047-3e7c-4100-9c23-965c55cf2e6a" d="m1.1094-2.5156c0.0625-1.4844 0.90625-1.7344 1.25-1.7344 1.0156 0 1.125 1.3438 1.125 1.7344zm0 0.21875h2.7812c0.21875 0 0.25 0 0.25-0.21875 0-0.98438-0.54688-1.9531-1.7812-1.9531-1.1562 0-2.0781 1.0312-2.0781 2.2812 0 1.3281 1.0469 2.2969 2.1875 2.2969 1.2188 0 1.6719-1.1094 1.6719-1.2969 0-0.09375-0.078125-0.125-0.14062-0.125-0.078125 0-0.10938 0.0625-0.125 0.14062-0.34375 1.0312-1.25 1.0312-1.3438 1.0312-0.5 0-0.89062-0.29688-1.125-0.67188-0.29688-0.46875-0.29688-1.125-0.29688-1.4844z" stroke-width=".99948"/>
     </g>
    </g>
    <g transform="translate(-134.36 -124.81)">
     <g transform="translate(194.34 223.28)">
      <path d="m1.7188-3.9844h1.4375v-0.3125h-1.4375v-1.8281h-0.25c0 0.8125-0.29688 1.875-1.2812 1.9219v0.21875h0.84375v2.75c0 1.2188 0.9375 1.3438 1.2969 1.3438 0.70312 0 0.98438-0.70312 0.98438-1.3438v-0.5625h-0.25v0.54688c0 0.73438-0.29688 1.1094-0.67188 1.1094-0.67188 0-0.67188-0.90625-0.67188-1.0781z" stroke-width=".99948"/>
     </g>
     <g transform="translate(198.21,223.28)">
      <path id="id-d9f40272-5a40-48d2-9d3a-6bda7da4572c" d="m1.6719-3.3125v-1.0938l-1.3906 0.10938v0.3125c0.70312 0 0.78125 0.0625 0.78125 0.5625v2.6719c0 0.4375-0.10938 0.4375-0.78125 0.4375v0.3125c0.39062-0.015625 0.85938-0.03125 1.1406-0.03125 0.39062 0 0.85938 0 1.2656 0.03125v-0.3125h-0.21875c-0.73438 0-0.75-0.10938-0.75-0.46875v-1.5312c0-0.98438 0.42188-1.875 1.1719-1.875 0.0625 0 0.09375 0 0.10938 0.015625-0.03125 0-0.23438 0.125-0.23438 0.39062s0.21875 0.42188 0.4375 0.42188c0.17188 0 0.42188-0.125 0.42188-0.4375s-0.3125-0.60938-0.73438-0.60938c-0.73438 0-1.0938 0.67188-1.2188 1.0938z" stroke-width=".99948"/>
     </g>
     <g transform="translate(202.11 223.28)">
      <path d="m3.3125-0.75c0.046875 0.39062 0.3125 0.8125 0.78125 0.8125 0.21875 0 0.82812-0.14062 0.82812-0.95312v-0.5625h-0.25v0.5625c0 0.57812-0.25 0.64062-0.35938 0.64062-0.32812 0-0.375-0.45312-0.375-0.5v-1.9844c0-0.42188 0-0.8125-0.35938-1.1875-0.39062-0.39062-0.89062-0.54688-1.3594-0.54688-0.82812 0-1.5156 0.46875-1.5156 1.125 0 0.29688 0.20312 0.46875 0.46875 0.46875 0.28125 0 0.45312-0.20312 0.45312-0.45312 0-0.125-0.046875-0.45312-0.51562-0.45312 0.28125-0.35938 0.76562-0.46875 1.0781-0.46875 0.5 0 1.0625 0.39062 1.0625 1.2812v0.35938c-0.51562 0.03125-1.2031 0.0625-1.8281 0.35938-0.75 0.34375-1 0.85938-1 1.2969 0 0.8125 0.96875 1.0625 1.5938 1.0625 0.65625 0 1.1094-0.40625 1.2969-0.85938zm-0.0625-1.6406v1c0 0.9375-0.71875 1.2812-1.1719 1.2812-0.48438 0-0.89062-0.34375-0.89062-0.84375 0-0.54688 0.42188-1.375 2.0625-1.4375z" stroke-width=".99948"/>
     </g>
     <g transform="translate(207.09 223.28)">
      <path id="id-1f781d54-de88-418d-a827-52da4e7cfe9f" d="m1.0938-3.4219v2.6719c0 0.4375-0.10938 0.4375-0.78125 0.4375v0.3125c0.35938-0.015625 0.85938-0.03125 1.1406-0.03125 0.25 0 0.76562 0.015625 1.1094 0.03125v-0.3125c-0.67188 0-0.78125 0-0.78125-0.4375v-1.8438c0-1.0312 0.71875-1.5938 1.3438-1.5938 0.64062 0 0.75 0.53125 0.75 1.1094v2.3281c0 0.4375-0.10938 0.4375-0.78125 0.4375v0.3125c0.34375-0.015625 0.85938-0.03125 1.125-0.03125 0.25 0 0.78125 0.015625 1.1094 0.03125v-0.3125c-0.51562 0-0.76562 0-0.76562-0.29688v-1.9062c0-0.85938 0-1.1562-0.3125-1.5156-0.14062-0.17188-0.46875-0.375-1.0469-0.375-0.73438 0-1.2031 0.42188-1.4844 1.0469v-1.0469l-1.4062 0.10938v0.3125c0.70312 0 0.78125 0.0625 0.78125 0.5625z" stroke-width=".99948"/>
     </g>
     <g transform="translate(212.63 223.28)">
      <path d="m2.0781-1.9375c0.21875 0.046875 1.0312 0.20312 1.0312 0.92188 0 0.5-0.34375 0.90625-1.125 0.90625-0.84375 0-1.2031-0.5625-1.3906-1.4219-0.03125-0.125-0.03125-0.15625-0.14062-0.15625-0.125 0-0.125 0.0625-0.125 0.23438v1.3281c0 0.17188 0 0.23438 0.10938 0.23438 0.046875 0 0.0625-0.015625 0.25-0.20312 0.015625-0.015625 0.015625-0.03125 0.20312-0.21875 0.4375 0.40625 0.89062 0.42188 1.0938 0.42188 1.1406 0 1.6094-0.67188 1.6094-1.3906 0-0.51562-0.29688-0.82812-0.42188-0.9375-0.32812-0.32812-0.71875-0.40625-1.1406-0.48438-0.5625-0.10938-1.2188-0.23438-1.2188-0.8125 0-0.35938 0.25-0.76562 1.1094-0.76562 1.0938 0 1.1562 0.90625 1.1719 1.2031 0 0.09375 0.09375 0.09375 0.10938 0.09375 0.14062 0 0.14062-0.046875 0.14062-0.23438v-1.0156c0-0.15625 0-0.23438-0.10938-0.23438-0.046875 0-0.078125 0-0.20312 0.125-0.03125 0.03125-0.125 0.125-0.17188 0.15625-0.375-0.28125-0.78125-0.28125-0.9375-0.28125-1.2188 0-1.5938 0.67188-1.5938 1.2344 0 0.34375 0.15625 0.625 0.42188 0.84375 0.32812 0.25 0.60938 0.3125 1.3281 0.45312z" stroke-width=".99948"/>
     </g>
     <g transform="translate(216.56 223.28)">
      <path id="id-4028ed02-568f-4d24-8a9a-8e2e0e5a32aa" d="m1.0938-3.4219v2.6719c0 0.4375-0.10938 0.4375-0.78125 0.4375v0.3125c0.35938-0.015625 0.85938-0.03125 1.1406-0.03125 0.25 0 0.76562 0.015625 1.1094 0.03125v-0.3125c-0.67188 0-0.78125 0-0.78125-0.4375v-1.8438c0-1.0312 0.71875-1.5938 1.3438-1.5938 0.64062 0 0.75 0.53125 0.75 1.1094v2.3281c0 0.4375-0.10938 0.4375-0.78125 0.4375v0.3125c0.34375-0.015625 0.85938-0.03125 1.125-0.03125 0.25 0 0.78125 0.015625 1.1094 0.03125v-0.3125c-0.65625 0-0.76562 0-0.76562-0.4375v-1.8438c0-1.0312 0.70312-1.5938 1.3438-1.5938 0.625 0 0.73438 0.53125 0.73438 1.1094v2.3281c0 0.4375-0.10938 0.4375-0.78125 0.4375v0.3125c0.34375-0.015625 0.85938-0.03125 1.125-0.03125s0.78125 0.015625 1.125 0.03125v-0.3125c-0.51562 0-0.76562 0-0.78125-0.29688v-1.9062c0-0.85938 0-1.1562-0.3125-1.5156-0.14062-0.17188-0.46875-0.375-1.0469-0.375-0.82812 0-1.2812 0.59375-1.4375 0.98438-0.14062-0.875-0.875-0.98438-1.3281-0.98438-0.73438 0-1.2031 0.42188-1.4844 1.0469v-1.0469l-1.4062 0.10938v0.3125c0.70312 0 0.78125 0.0625 0.78125 0.5625z" stroke-width=".99948"/>
     </g>
     <g transform="translate(224.86,223.28)">
      <path d="m1.7656-4.4062-1.3906 0.10938v0.3125c0.64062 0 0.73438 0.0625 0.73438 0.54688v2.6875c0 0.4375-0.10938 0.4375-0.78125 0.4375v0.3125c0.3125-0.015625 0.85938-0.03125 1.0938-0.03125 0.35938 0 0.70312 0.015625 1.0469 0.03125v-0.3125c-0.67188 0-0.70312-0.046875-0.70312-0.4375zm0.03125-1.7344c0-0.3125-0.23438-0.53125-0.51562-0.53125-0.3125 0-0.53125 0.26562-0.53125 0.53125s0.21875 0.53125 0.53125 0.53125c0.28125 0 0.51562-0.21875 0.51562-0.53125z" stroke-width=".99948"/>
     </g>
     <g transform="translate(227.63 223.28)">
      <path d="m1.7188-3.9844h1.4375v-0.3125h-1.4375v-1.8281h-0.25c0 0.8125-0.29688 1.875-1.2812 1.9219v0.21875h0.84375v2.75c0 1.2188 0.9375 1.3438 1.2969 1.3438 0.70312 0 0.98438-0.70312 0.98438-1.3438v-0.5625h-0.25v0.54688c0 0.73438-0.29688 1.1094-0.67188 1.1094-0.67188 0-0.67188-0.90625-0.67188-1.0781z" stroke-width=".99948"/>
     </g>
     <g transform="translate(231.5 223.28)">
      <path id="id-50375fdb-2a41-4674-8e19-27ddd9876a9e" d="m1.7188-3.9844h1.4375v-0.3125h-1.4375v-1.8281h-0.25c0 0.8125-0.29688 1.875-1.2812 1.9219v0.21875h0.84375v2.75c0 1.2188 0.9375 1.3438 1.2969 1.3438 0.70312 0 0.98438-0.70312 0.98438-1.3438v-0.5625h-0.25v0.54688c0 0.73438-0.29688 1.1094-0.67188 1.1094-0.67188 0-0.67188-0.90625-0.67188-1.0781z" stroke-width=".99948"/>
     </g>
     <g transform="translate(235.38 223.28)">
      <path d="m1.1094-2.5156c0.0625-1.4844 0.90625-1.7344 1.25-1.7344 1.0156 0 1.125 1.3438 1.125 1.7344zm0 0.21875h2.7812c0.21875 0 0.25 0 0.25-0.21875 0-0.98438-0.54688-1.9531-1.7812-1.9531-1.1562 0-2.0781 1.0312-2.0781 2.2812 0 1.3281 1.0469 2.2969 2.1875 2.2969 1.2188 0 1.6719-1.1094 1.6719-1.2969 0-0.09375-0.078125-0.125-0.14062-0.125-0.078125 0-0.10938 0.0625-0.125 0.14062-0.34375 1.0312-1.25 1.0312-1.3438 1.0312-0.5 0-0.89062-0.29688-1.125-0.67188-0.29688-0.46875-0.29688-1.125-0.29688-1.4844z" stroke-width=".99948"/>
     </g>
     <g transform="translate(239.8 223.28)">
      <path d="m3.7812-0.54688v0.65625l1.4688-0.10938v-0.3125c-0.6875 0-0.78125-0.0625-0.78125-0.5625v-6.0469l-1.4219 0.10938v0.3125c0.6875 0 0.76562 0.0625 0.76562 0.5625v2.1562c-0.28125-0.35938-0.71875-0.625-1.25-0.625-1.1719 0-2.2188 0.98438-2.2188 2.2656 0 1.2656 0.96875 2.25 2.1094 2.25 0.64062 0 1.0781-0.34375 1.3281-0.65625zm0-2.6719v2.0469c0 0.17188 0 0.1875-0.10938 0.35938-0.29688 0.48438-0.73438 0.70312-1.1719 0.70312-0.45312 0-0.8125-0.26562-1.0469-0.64062-0.25-0.40625-0.28125-0.96875-0.28125-1.3906 0-0.35938 0.015625-0.95312 0.29688-1.4062 0.21875-0.3125 0.59375-0.64062 1.1406-0.64062 0.34375 0 0.76562 0.15625 1.0625 0.59375 0.10938 0.17188 0.10938 0.1875 0.10938 0.375z" stroke-width=".99948"/>
     </g>
     <g transform="translate(248.66 223.28)">
      <path d="m1.7656-6.9219-1.4375 0.10938v0.3125c0.70312 0 0.78125 0.0625 0.78125 0.5625v5.1875c0 0.4375-0.10938 0.4375-0.78125 0.4375v0.3125c0.32812-0.015625 0.85938-0.03125 1.1094-0.03125s0.73438 0.015625 1.1094 0.03125v-0.3125c-0.67188 0-0.78125 0-0.78125-0.4375z" stroke-width=".99948"/>
     </g>
     <g transform="translate(251.42 223.28)">
      <path id="id-bd0a3d54-7251-4ce0-9863-ac3eca060e2a" d="m1.7656-4.4062-1.3906 0.10938v0.3125c0.64062 0 0.73438 0.0625 0.73438 0.54688v2.6875c0 0.4375-0.10938 0.4375-0.78125 0.4375v0.3125c0.3125-0.015625 0.85938-0.03125 1.0938-0.03125 0.35938 0 0.70312 0.015625 1.0469 0.03125v-0.3125c-0.67188 0-0.70312-0.046875-0.70312-0.4375zm0.03125-1.7344c0-0.3125-0.23438-0.53125-0.51562-0.53125-0.3125 0-0.53125 0.26562-0.53125 0.53125s0.21875 0.53125 0.53125 0.53125c0.28125 0 0.51562-0.21875 0.51562-0.53125z" stroke-width=".99948"/>
     </g>
     <g transform="translate(254.19 223.28)">
      <path d="m2.2188-1.7188c-0.875 0-0.875-1-0.875-1.2188 0-0.26562 0.015625-0.59375 0.15625-0.84375 0.078125-0.10938 0.3125-0.39062 0.71875-0.39062 0.85938 0 0.85938 0.98438 0.85938 1.2188 0 0.26562 0 0.59375-0.15625 0.84375-0.078125 0.10938-0.3125 0.39062-0.70312 0.39062zm-1.1562 0.39062c0-0.03125 0-0.26562 0.15625-0.46875 0.39062 0.28125 0.8125 0.3125 1 0.3125 0.92188 0 1.6094-0.6875 1.6094-1.4531 0-0.375-0.15625-0.73438-0.40625-0.96875 0.35938-0.34375 0.71875-0.39062 0.89062-0.39062 0.03125 0 0.078125 0 0.10938 0.015625-0.10938 0.03125-0.17188 0.14062-0.17188 0.26562 0 0.17188 0.14062 0.28125 0.29688 0.28125 0.09375 0 0.28125-0.0625 0.28125-0.29688 0-0.17188-0.10938-0.48438-0.5-0.48438-0.20312 0-0.64062 0.0625-1.0625 0.46875-0.42188-0.32812-0.82812-0.35938-1.0469-0.35938-0.9375 0-1.625 0.6875-1.625 1.4531 0 0.4375 0.21875 0.8125 0.46875 1.0312-0.125 0.14062-0.3125 0.46875-0.3125 0.82812 0 0.3125 0.14062 0.6875 0.45312 0.89062-0.60938 0.15625-0.92188 0.59375-0.92188 0.98438 0 0.71875 0.98438 1.2656 2.2031 1.2656 1.1719 0 2.2031-0.5 2.2031-1.2812 0-0.34375-0.125-0.85938-0.64062-1.1406-0.53125-0.26562-1.1094-0.26562-1.7188-0.26562-0.25 0-0.67188 0-0.75-0.015625-0.3125-0.046875-0.51562-0.34375-0.51562-0.67188zm1.4375 3.1562c-1.0156 0-1.7031-0.51562-1.7031-1.0469 0-0.45312 0.375-0.82812 0.8125-0.84375h0.59375c0.85938 0 1.9688 0 1.9688 0.84375 0 0.54688-0.70312 1.0469-1.6719 1.0469z" stroke-width=".99948"/>
     </g>
     <g transform="translate(259.17 223.28)">
      <path d="m1.0938-0.75c0 0.4375-0.10938 0.4375-0.78125 0.4375v0.3125c0.35938-0.015625 0.85938-0.03125 1.1406-0.03125 0.25 0 0.76562 0.015625 1.1094 0.03125v-0.3125c-0.67188 0-0.78125 0-0.78125-0.4375v-1.8438c0-1.0312 0.71875-1.5938 1.3438-1.5938 0.64062 0 0.75 0.53125 0.75 1.1094v2.3281c0 0.4375-0.10938 0.4375-0.78125 0.4375v0.3125c0.34375-0.015625 0.85938-0.03125 1.125-0.03125 0.25 0 0.78125 0.015625 1.1094 0.03125v-0.3125c-0.51562 0-0.76562 0-0.76562-0.29688v-1.9062c0-0.85938 0-1.1562-0.3125-1.5156-0.14062-0.17188-0.46875-0.375-1.0469-0.375-0.84375 0-1.2812 0.59375-1.4531 0.98438v-3.5l-1.4375 0.10938v0.3125c0.70312 0 0.78125 0.0625 0.78125 0.5625z" stroke-width=".99948"/>
     </g>
     <g transform="translate(264.43,223.28)">
      <path d="m1.7188-3.9844h1.4375v-0.3125h-1.4375v-1.8281h-0.25c0 0.8125-0.29688 1.875-1.2812 1.9219v0.21875h0.84375v2.75c0 1.2188 0.9375 1.3438 1.2969 1.3438 0.70312 0 0.98438-0.70312 0.98438-1.3438v-0.5625h-0.25v0.54688c0 0.73438-0.29688 1.1094-0.67188 1.1094-0.67188 0-0.67188-0.90625-0.67188-1.0781z" stroke-width=".99948"/>
     </g>
     <g transform="translate(271.62 223.28)">
      <path id="id-c4115d14-dd4a-4b89-8e19-2b34c824ec4c" d="m1.7656-4.4062-1.3906 0.10938v0.3125c0.64062 0 0.73438 0.0625 0.73438 0.54688v2.6875c0 0.4375-0.10938 0.4375-0.78125 0.4375v0.3125c0.3125-0.015625 0.85938-0.03125 1.0938-0.03125 0.35938 0 0.70312 0.015625 1.0469 0.03125v-0.3125c-0.67188 0-0.70312-0.046875-0.70312-0.4375zm0.03125-1.7344c0-0.3125-0.23438-0.53125-0.51562-0.53125-0.3125 0-0.53125 0.26562-0.53125 0.53125s0.21875 0.53125 0.53125 0.53125c0.28125 0 0.51562-0.21875 0.51562-0.53125z" stroke-width=".99948"/>
     </g>
     <g transform="translate(274.39 223.28)">
      <path id="id-22a8571d-d789-4a10-80e7-148269c429ed" d="m1.0938-3.4219v2.6719c0 0.4375-0.10938 0.4375-0.78125 0.4375v0.3125c0.35938-0.015625 0.85938-0.03125 1.1406-0.03125 0.25 0 0.76562 0.015625 1.1094 0.03125v-0.3125c-0.67188 0-0.78125 0-0.78125-0.4375v-1.8438c0-1.0312 0.71875-1.5938 1.3438-1.5938 0.64062 0 0.75 0.53125 0.75 1.1094v2.3281c0 0.4375-0.10938 0.4375-0.78125 0.4375v0.3125c0.34375-0.015625 0.85938-0.03125 1.125-0.03125 0.25 0 0.78125 0.015625 1.1094 0.03125v-0.3125c-0.51562 0-0.76562 0-0.76562-0.29688v-1.9062c0-0.85938 0-1.1562-0.3125-1.5156-0.14062-0.17188-0.46875-0.375-1.0469-0.375-0.73438 0-1.2031 0.42188-1.4844 1.0469v-1.0469l-1.4062 0.10938v0.3125c0.70312 0 0.78125 0.0625 0.78125 0.5625z" stroke-width=".99948"/>
     </g>
     <g transform="translate(279.66 223.28)">
      <path d="m1.7188-3.9844h1.4375v-0.3125h-1.4375v-1.8281h-0.25c0 0.8125-0.29688 1.875-1.2812 1.9219v0.21875h0.84375v2.75c0 1.2188 0.9375 1.3438 1.2969 1.3438 0.70312 0 0.98438-0.70312 0.98438-1.3438v-0.5625h-0.25v0.54688c0 0.73438-0.29688 1.1094-0.67188 1.1094-0.67188 0-0.67188-0.90625-0.67188-1.0781z" stroke-width=".99948"/>
     </g>
     <g transform="translate(283.53,223.28)">
      <path id="id-98b3a2e8-873a-48b3-9834-f2713f020b0e" d="m1.1094-2.5156c0.0625-1.4844 0.90625-1.7344 1.25-1.7344 1.0156 0 1.125 1.3438 1.125 1.7344zm0 0.21875h2.7812c0.21875 0 0.25 0 0.25-0.21875 0-0.98438-0.54688-1.9531-1.7812-1.9531-1.1562 0-2.0781 1.0312-2.0781 2.2812 0 1.3281 1.0469 2.2969 2.1875 2.2969 1.2188 0 1.6719-1.1094 1.6719-1.2969 0-0.09375-0.078125-0.125-0.14062-0.125-0.078125 0-0.10938 0.0625-0.125 0.14062-0.34375 1.0312-1.25 1.0312-1.3438 1.0312-0.5 0-0.89062-0.29688-1.125-0.67188-0.29688-0.46875-0.29688-1.125-0.29688-1.4844z" stroke-width=".99948"/>
     </g>
     <g transform="translate(287.96 223.28)">
      <path d="m1.0938-3.4219v2.6719c0 0.4375-0.10938 0.4375-0.78125 0.4375v0.3125c0.35938-0.015625 0.85938-0.03125 1.1406-0.03125 0.25 0 0.76562 0.015625 1.1094 0.03125v-0.3125c-0.67188 0-0.78125 0-0.78125-0.4375v-1.8438c0-1.0312 0.71875-1.5938 1.3438-1.5938 0.64062 0 0.75 0.53125 0.75 1.1094v2.3281c0 0.4375-0.10938 0.4375-0.78125 0.4375v0.3125c0.34375-0.015625 0.85938-0.03125 1.125-0.03125 0.25 0 0.78125 0.015625 1.1094 0.03125v-0.3125c-0.51562 0-0.76562 0-0.76562-0.29688v-1.9062c0-0.85938 0-1.1562-0.3125-1.5156-0.14062-0.17188-0.46875-0.375-1.0469-0.375-0.73438 0-1.2031 0.42188-1.4844 1.0469v-1.0469l-1.4062 0.10938v0.3125c0.70312 0 0.78125 0.0625 0.78125 0.5625z" stroke-width=".99948"/>
     </g>
     <g transform="translate(293.49 223.28)">
      <path id="id-29295bff-ebbe-460f-8d5e-7cb7b79eb34d" d="m2.0781-1.9375c0.21875 0.046875 1.0312 0.20312 1.0312 0.92188 0 0.5-0.34375 0.90625-1.125 0.90625-0.84375 0-1.2031-0.5625-1.3906-1.4219-0.03125-0.125-0.03125-0.15625-0.14062-0.15625-0.125 0-0.125 0.0625-0.125 0.23438v1.3281c0 0.17188 0 0.23438 0.10938 0.23438 0.046875 0 0.0625-0.015625 0.25-0.20312 0.015625-0.015625 0.015625-0.03125 0.20312-0.21875 0.4375 0.40625 0.89062 0.42188 1.0938 0.42188 1.1406 0 1.6094-0.67188 1.6094-1.3906 0-0.51562-0.29688-0.82812-0.42188-0.9375-0.32812-0.32812-0.71875-0.40625-1.1406-0.48438-0.5625-0.10938-1.2188-0.23438-1.2188-0.8125 0-0.35938 0.25-0.76562 1.1094-0.76562 1.0938 0 1.1562 0.90625 1.1719 1.2031 0 0.09375 0.09375 0.09375 0.10938 0.09375 0.14062 0 0.14062-0.046875 0.14062-0.23438v-1.0156c0-0.15625 0-0.23438-0.10938-0.23438-0.046875 0-0.078125 0-0.20312 0.125-0.03125 0.03125-0.125 0.125-0.17188 0.15625-0.375-0.28125-0.78125-0.28125-0.9375-0.28125-1.2188 0-1.5938 0.67188-1.5938 1.2344 0 0.34375 0.15625 0.625 0.42188 0.84375 0.32812 0.25 0.60938 0.3125 1.3281 0.45312z" stroke-width=".99948"/>
     </g>
     <g transform="translate(297.42 223.28)">
      <path id="id-95b1f1c0-ed61-48eb-8a46-2a6a517ef00c" d="m1.7656-4.4062-1.3906 0.10938v0.3125c0.64062 0 0.73438 0.0625 0.73438 0.54688v2.6875c0 0.4375-0.10938 0.4375-0.78125 0.4375v0.3125c0.3125-0.015625 0.85938-0.03125 1.0938-0.03125 0.35938 0 0.70312 0.015625 1.0469 0.03125v-0.3125c-0.67188 0-0.70312-0.046875-0.70312-0.4375zm0.03125-1.7344c0-0.3125-0.23438-0.53125-0.51562-0.53125-0.3125 0-0.53125 0.26562-0.53125 0.53125s0.21875 0.53125 0.53125 0.53125c0.28125 0 0.51562-0.21875 0.51562-0.53125z" stroke-width=".99948"/>
     </g>
     <g transform="translate(300.19,223.28)">
      <path d="m1.7188-3.9844h1.4375v-0.3125h-1.4375v-1.8281h-0.25c0 0.8125-0.29688 1.875-1.2812 1.9219v0.21875h0.84375v2.75c0 1.2188 0.9375 1.3438 1.2969 1.3438 0.70312 0 0.98438-0.70312 0.98438-1.3438v-0.5625h-0.25v0.54688c0 0.73438-0.29688 1.1094-0.67188 1.1094-0.67188 0-0.67188-0.90625-0.67188-1.0781z" stroke-width=".99948"/>
     </g>
     <g transform="translate(303.78 223.28)">
      <path d="m4.1406-3.3438c0.25-0.64062 0.76562-0.64062 0.92188-0.64062v-0.3125c-0.23438 0.015625-0.51562 0.03125-0.75 0.03125-0.17188 0-0.64062-0.015625-0.85938-0.03125v0.3125c0.3125 0 0.46875 0.17188 0.46875 0.42188 0 0.10938-0.015625 0.125-0.0625 0.25l-1.0156 2.4375-1.0938-2.6719c-0.046875-0.10938-0.0625-0.14062-0.0625-0.1875 0-0.25 0.35938-0.25 0.5625-0.25v-0.3125c-0.26562 0.015625-0.92188 0.03125-1.0938 0.03125-0.26562 0-0.67188-0.015625-0.96875-0.03125v0.3125c0.48438 0 0.67188 0 0.8125 0.34375l1.5 3.6406c-0.0625 0.125-0.20312 0.45312-0.25 0.59375-0.21875 0.54688-0.5 1.2344-1.1406 1.2344-0.046875 0-0.28125 0-0.46875-0.1875 0.3125-0.03125 0.39062-0.25 0.39062-0.42188 0-0.25-0.1875-0.40625-0.42188-0.40625-0.20312 0-0.42188 0.125-0.42188 0.42188 0 0.45312 0.42188 0.8125 0.92188 0.8125 0.625 0 1.0312-0.57812 1.2656-1.1406z" stroke-width=".99948"/>
     </g>
     <g transform="translate(308.22 223.28)">
      <path d="m1.9062-0.53125c0-0.28125-0.23438-0.53125-0.51562-0.53125-0.29688 0-0.53125 0.25-0.53125 0.53125 0 0.29688 0.23438 0.53125 0.53125 0.53125 0.28125 0 0.51562-0.23438 0.51562-0.53125z" stroke-width=".99948"/>
     </g>
    </g>
   </g>
  </g>
 </g>
</svg>
