<svg xmlns="http://www.w3.org/2000/svg" width="276.263" height="277.717"><path d="M0 0h170.08M0 28.347h170.08M0 56.694h170.08M0 85.04h170.08M0 113.387h170.08M0 141.734h170.08M0 170.071h170.08M0 0v170.08M28.347 0v170.08M56.694 0v170.08M85.04 0v170.08M113.387 0v170.08M141.734 0v170.08M170.071 0v170.08" style="fill:none;stroke:gray;stroke-width:.19925;stroke-linecap:butt;stroke-linejoin:miter;stroke-miterlimit:10;stroke-dasharray:none;stroke-opacity:1" transform="matrix(1.33333 0 0 -1.33333 37.796 239.922)"/><path d="M-28.347 0h197.97" style="fill:none;stroke:#000;stroke-width:.3985;stroke-linecap:butt;stroke-linejoin:miter;stroke-miterlimit:10;stroke-dasharray:none;stroke-opacity:1" transform="matrix(1.33333 0 0 -1.33333 37.796 239.922)"/><path d="M-1.196 1.594C-1.096.996 0 .1.3 0 0-.1-1.096-.996-1.196-1.594" style="fill:none;stroke:#000;stroke-width:.31879;stroke-linecap:round;stroke-linejoin:round;stroke-miterlimit:10;stroke-dasharray:none;stroke-opacity:1" transform="matrix(1.33333 0 0 -1.33333 263.96 239.922)"/><path d="M3.33-3.01c.058-.259.293-1.173.984-1.173.047 0 .293 0 .504.13-.281.046-.48.304-.48.538 0 .164.105.352.374.352.223 0 .54-.188.54-.586 0-.516-.587-.656-.926-.656-.575 0-.926.527-1.043.761-.258-.656-.785-.761-1.078-.761C1.162-4.405.599-3.116.599-2.87c0 .105.106.105.117.105.082 0 .117-.023.13-.117.339-1.055.995-1.3 1.335-1.3.188 0 .54.093.54.667 0 .305-.165.973-.54 2.367-.152.621-.504 1.043-.95 1.043-.058 0-.28 0-.491-.129.246-.058.468-.27.468-.539 0-.27-.222-.351-.375-.351-.293 0-.539.258-.539.574 0 .457.493.656.938.656.656 0 1.008-.691 1.043-.75.117.364.48.75 1.078.75 1.02 0 1.594-1.277 1.594-1.535 0-.094-.094-.094-.13-.094-.081 0-.105.035-.128.106C4.36-.351 3.693-.105 3.365-.105c-.387 0-.54-.328-.54-.656 0-.223.06-.445.165-.879zm0 0" aria-label="x" style="fill:#000;fill-opacity:1;fill-rule:nonzero;stroke:none" transform="matrix(1.33333 0 0 1.33333 269.261 242.78)"/><path d="M0-28.347v197.97" style="fill:none;stroke:#000;stroke-width:.3985;stroke-linecap:butt;stroke-linejoin:miter;stroke-miterlimit:10;stroke-dasharray:none;stroke-opacity:1" transform="matrix(1.33333 0 0 -1.33333 37.796 239.922)"/><path d="M-1.196 1.594C-1.096.996 0 .1.3 0 0-.1-1.096-.996-1.196-1.594" style="fill:none;stroke:#000;stroke-width:.31879;stroke-linecap:round;stroke-linejoin:round;stroke-miterlimit:10;stroke-dasharray:none;stroke-opacity:1" transform="matrix(0 -1.33333 -1.33333 0 37.796 13.758)"/><path d="M4.84-3.796c.047-.14.047-.152.047-.222 0-.188-.14-.27-.293-.27a.44.44 0 0 0-.351.2c-.024.058-.094.363-.14.538-.071.258-.141.528-.2.797L3.458-.96c-.035.152-.469.856-1.125.856-.504 0-.621-.446-.621-.809 0-.457.175-1.078.515-1.957.153-.41.2-.516.2-.715a.8.8 0 0 0-.82-.82C.656-4.405.293-2.952.293-2.87c0 .105.093.105.117.105.094 0 .105-.023.152-.187.27-.938.668-1.23 1.008-1.23.082 0 .258 0 .258.316 0 .246-.106.516-.176.703-.398 1.055-.574 1.617-.574 2.086 0 .89.62 1.184 1.219 1.184.386 0 .726-.165.996-.446-.13.516-.246 1.008-.645 1.535-.258.34-.633.633-1.09.633-.14 0-.597-.035-.761-.422.164 0 .293 0 .433-.117.094-.094.2-.223.2-.41 0-.316-.27-.352-.376-.352-.222 0-.55.164-.55.645 0 .504.433.867 1.054.867 1.02 0 2.051-.902 2.332-2.027zm0 0" aria-label="y" style="fill:#000;fill-opacity:1;fill-rule:nonzero;stroke:none" transform="matrix(1.33333 0 0 1.33333 34.301 5.874)"/><path d="m0 0 122.746 70.867M0 0l70.867 122.746" style="fill:none;stroke:#000;stroke-width:.79701;stroke-linecap:butt;stroke-linejoin:miter;stroke-miterlimit:10;stroke-dasharray:none;stroke-opacity:1" transform="matrix(1.33333 0 0 -1.33333 37.796 239.922)"/><path d="M123.742 70.867a.996.996 0 1 1-1.993 0 .996.996 0 0 1 1.993 0M71.863 122.746a.996.996 0 1 1-1.992 0 .996.996 0 0 1 1.992 0" style="fill:#000;fill-opacity:1;fill-rule:nonzero;stroke:none" transform="matrix(1.33333 0 0 -1.33333 37.796 239.922)"/><path d="M28.347 0c0 4.975-1.31 9.865-3.444 13.56" style="fill:none;stroke:#000;stroke-width:.79701;stroke-linecap:butt;stroke-linejoin:miter;stroke-miterlimit:10;stroke-dasharray:none;stroke-opacity:1" transform="matrix(1.33333 0 0 -1.33333 37.796 239.922)"/><path d="M-1.554 2.072C-1.424 1.295 0 .13.389 0 0-.13-1.425-1.295-1.554-2.072" style="fill:none;stroke:#000;stroke-width:.6376;stroke-linecap:round;stroke-linejoin:round;stroke-miterlimit:10;stroke-dasharray:none;stroke-opacity:1" transform="scale(-1.33332 1.33332)rotate(-60 117.468 129.308)"/><path d="M4.745-2.356c0-1.558-.925-2.05-1.652-2.05C1.722-4.406.41-2.976.41-1.57c0 .925.597 1.675 1.617 1.675.62 0 1.336-.222 2.097-.832.13.528.457.832.903.832.527 0 .843-.539.843-.703 0-.07-.058-.105-.128-.105-.059 0-.094.035-.13.105-.175.492-.527.492-.55.492-.317 0-.317-.785-.317-1.02 0-.21 0-.233.106-.35C5.788-2.65 5.999-3.81 5.999-3.82c0-.012-.011-.094-.117-.094-.105 0-.105.023-.152.21-.188.622-.516 1.384-.985 1.97zM4.09-.984c-.879.761-1.652.878-2.05.878-.598 0-.891-.457-.891-1.09 0-.492.258-1.558.574-2.074.469-.726 1.008-.914 1.36-.914.984 0 .984 1.301.984 2.086 0 .364 0 .938.023 1.114m0 0" aria-label="α" style="fill:#000;fill-opacity:1;fill-rule:nonzero;stroke:none" transform="matrix(1.33333 0 0 1.33333 78.877 231.442)"/><path d="M36.824 21.26c-3.731 6.462-9.102 11.833-14.951 15.21" style="fill:none;stroke:#000;stroke-width:.79701;stroke-linecap:butt;stroke-linejoin:miter;stroke-miterlimit:10;stroke-dasharray:none;stroke-opacity:1" transform="matrix(1.33333 0 0 -1.33333 37.796 239.922)"/><path d="M-1.554 2.072C-1.424 1.295 0 .13.389 0 0-.13-1.425-1.295-1.554-2.072" style="fill:none;stroke:#000;stroke-width:.6376;stroke-linecap:round;stroke-linejoin:round;stroke-miterlimit:10;stroke-dasharray:none;stroke-opacity:1" transform="scale(-1.3333 1.3333)rotate(-29.999 242.622 165.452)"/><path d="M5.73-5.673c0-.739-.552-1.36-1.36-1.36-.574 0-.856.153-1.207.422-.54.399-1.09 1.36-1.278 2.121L.303 1.827c-.011.047.036.105.118.105s.105-.023.117-.047l.691-2.754c.2.598.633.973 1.36.973.726 0 1.476-.351 1.921-.797a2.5 2.5 0 0 0 .797-1.828c0-.715-.363-1.23-.726-1.488.574-.328 1.148-.938 1.148-1.664M3.935-4.021c-.129.059-.246.07-.48.07-.14 0-.34.012-.434-.035.012-.105.375-.082.48-.082.212 0 .305 0 .434.047m1.23-1.875c0 .692-.374 1.406-.89 1.723-.27-.106-.469-.117-.773-.117-.211 0-.762-.012-.762.316-.012.281.504.246.68.246.375 0 .527-.012.82-.129.375.363.433.668.445 1.125.012.574-.222 1.324-.504 1.711-.386.54-1.054.902-1.629.902-.75 0-1.125-.585-1.125-1.289 0-.093 0-.246.047-.433l.633-2.52c.223-.855.938-2.449 2.133-2.449.574 0 .926.316.926.914m0 0" aria-label="β" style="fill:#000;fill-opacity:1;fill-rule:nonzero;stroke:none" transform="matrix(1.33333 0 0 1.33333 87.14 189.79)"/><path d="M.445 1.218c-.082.34-.094.41-.54.41-.116 0-.222 0-.222.188 0 .082.047.117.129.117.27 0 .55-.035.832-.035.328 0 .668.035.984.035.059 0 .188 0 .188-.2 0-.105-.106-.105-.246-.105-.492 0-.492-.07-.492-.164 0-.117.421-1.746.48-1.992.14.293.41.633.926.633 1.148 0 2.402-1.453 2.402-2.918 0-.938-.574-1.594-1.336-1.594-.492 0-.972.363-1.3.75-.094-.539-.528-.75-.891-.75-.457 0-.656.387-.738.574-.188.34-.317.938-.317.961 0 .106.106.106.13.106.093 0 .105-.012.163-.235.164-.703.363-1.183.727-1.183.175 0 .304.082.304.457 0 .234-.023.34-.07.504zm1.758-4.324c.07-.27.34-.55.515-.703.352-.305.633-.375.809-.375.398 0 .633.351.633.937s-.328 1.735-.504 2.11c-.34.703-.82 1.03-1.184 1.03-.656 0-.785-.831-.785-.89 0-.023 0-.035.023-.164zm0 0" aria-label="p" style="fill:#000;fill-opacity:1;fill-rule:nonzero;stroke:none" transform="matrix(1.33333 0 0 1.33333 182.705 137.415)"/><path d="M3.293 2.39c0-.035 0-.047-.164-.223C1.887.913 1.56-.962 1.56-2.497c0-1.722.386-3.457 1.605-4.71.13-.118.13-.13.13-.165 0-.07-.036-.105-.095-.105-.105 0-.996.68-1.582 1.945C1.102-4.43.985-3.329.985-2.497c0 .785.117 1.992.656 3.117.597 1.22 1.453 1.875 1.558 1.875.059 0 .094-.035.094-.105m0 0" aria-label="(" style="fill:#000;fill-opacity:1;fill-rule:nonzero;stroke:none" transform="matrix(1.33333 0 0 1.33333 189.388 137.415)"/><path d="M3.33-3.012c.058-.258.292-1.172.984-1.172.047 0 .293 0 .504.129-.282.047-.48.304-.48.539 0 .164.105.351.374.351.223 0 .54-.187.54-.586 0-.515-.587-.656-.927-.656-.574 0-.925.527-1.043.762-.257-.656-.785-.762-1.078-.762C1.161-4.407.6-3.117.6-2.872c0 .106.105.106.117.106.082 0 .117-.024.129-.117.34-1.055.996-1.301 1.336-1.301.187 0 .539.094.539.668 0 .304-.164.972-.54 2.367-.152.621-.503 1.043-.948 1.043-.059 0-.282 0-.493-.129.247-.059.47-.27.47-.54 0-.269-.223-.35-.376-.35-.293 0-.539.257-.539.574 0 .457.492.656.938.656.656 0 1.007-.692 1.043-.75.117.363.48.75 1.078.75 1.02 0 1.593-1.277 1.593-1.535 0-.094-.093-.094-.128-.094-.082 0-.106.035-.13.105C4.362-.352 3.694-.106 3.365-.106c-.386 0-.539-.328-.539-.656 0-.223.059-.446.164-.88zm4.39 3c0-.657-.257-1.043-.644-1.043a.51.51 0 0 0-.527.527c0 .27.2.527.527.527a.52.52 0 0 0 .352-.129c.023-.023.035-.035.047-.035s.023.012.023.153c0 .738-.351 1.336-.68 1.664-.105.105-.105.129-.105.164 0 .07.047.105.094.105.117 0 .914-.761.914-1.933m7.234-3.785c.047-.141.047-.153.047-.223 0-.188-.14-.27-.293-.27a.44.44 0 0 0-.351.2c-.024.058-.094.363-.141.539-.07.257-.14.527-.2.796l-.445 1.793c-.035.153-.468.856-1.125.856-.503 0-.62-.445-.62-.809 0-.457.175-1.078.515-1.957.152-.41.2-.515.2-.715a.8.8 0 0 0-.821-.82c-.95 0-1.313 1.453-1.313 1.535 0 .106.094.106.118.106.093 0 .105-.024.152-.188.27-.937.668-1.23 1.008-1.23.082 0 .258 0 .258.316 0 .246-.106.516-.176.703-.399 1.055-.574 1.618-.574 2.086 0 .89.62 1.184 1.218 1.184.387 0 .727-.164.996-.445-.129.515-.246 1.007-.644 1.535-.258.34-.633.633-1.09.633-.14 0-.598-.036-.762-.422.164 0 .293 0 .434-.118.094-.093.2-.222.2-.41 0-.316-.27-.351-.376-.351-.223 0-.55.164-.55.644 0 .504.433.867 1.054.867 1.02 0 2.05-.902 2.332-2.027zm0 0" aria-label="x,y" style="fill:#000;fill-opacity:1;fill-rule:nonzero;stroke:none" transform="matrix(1.33333 0 0 1.33333 194.554 137.415)"/><path d="M2.884-2.497c0-.773-.117-1.98-.656-3.105C1.63-6.821.763-7.477.669-7.477a.105.105 0 0 0-.105.105c0 .035 0 .047.2.235.972.984 1.534 2.566 1.534 4.64C2.298-.786 1.935.96.705 2.226c-.141.117-.141.129-.141.164 0 .059.047.105.105.105.094 0 .997-.68 1.582-1.945.504-1.101.633-2.203.633-3.047m0 0" aria-label=")" style="fill:#000;fill-opacity:1;fill-rule:nonzero;stroke:none" transform="matrix(1.33333 0 0 1.33333 215.038 137.415)"/><path d="M.445 1.22c-.083.34-.094.41-.54.41-.117 0-.222 0-.222.188 0 .082.047.117.129.117.27 0 .55-.035.832-.035.328 0 .668.035.984.035.059 0 .188 0 .188-.2 0-.105-.106-.105-.246-.105-.493 0-.493-.07-.493-.164 0-.117.422-1.746.48-1.992.141.293.41.633.927.633 1.148 0 2.402-1.453 2.402-2.918 0-.938-.574-1.594-1.336-1.594-.492 0-.973.363-1.3.75-.095-.54-.528-.75-.891-.75-.457 0-.657.387-.739.574-.187.34-.316.938-.316.961 0 .106.105.106.129.106.094 0 .105-.012.164-.235.164-.703.363-1.183.726-1.183.176 0 .305.082.305.457 0 .234-.023.34-.07.504zm1.757-4.324c.07-.27.34-.551.516-.703.352-.305.633-.375.809-.375.398 0 .632.351.632.937s-.328 1.734-.504 2.11c-.34.703-.82 1.03-1.183 1.03-.656 0-.785-.831-.785-.89 0-.023 0-.035.023-.164zm0 0" aria-label="p" style="fill:#000;fill-opacity:1;fill-rule:nonzero;stroke:none" transform="matrix(1.33333 0 0 1.33333 107.944 68.256)"/><path d="M2.026-3.292a.6.6 0 0 0 .059-.223c0-.21-.2-.386-.41-.386-.27 0-.352.222-.387.328L.374-.55a.5.5 0 0 0-.035.117c0 .082.21.153.27.153.046 0 .058-.024.105-.13zm0 0" aria-label="0" style="fill:#000;fill-opacity:1;fill-rule:nonzero;stroke:none" transform="matrix(1.33333 0 0 1.33333 114.628 63.436)"/><path d="M3.292 2.392c0-.035 0-.047-.164-.223C1.886.915 1.558-.96 1.558-2.495c0-1.723.386-3.457 1.605-4.71.129-.118.129-.13.129-.165 0-.07-.035-.105-.094-.105-.105 0-.996.68-1.582 1.945C1.1-4.428.983-3.327.983-2.495c0 .785.117 1.992.656 3.117.598 1.219 1.454 1.875 1.559 1.875.059 0 .094-.035.094-.105m0 0" aria-label="(" style="fill:#000;fill-opacity:1;fill-rule:nonzero;stroke:none" transform="matrix(1.33333 0 0 1.33333 118.354 68.256)"/><path d="M3.329-3.01c.059-.258.293-1.172.984-1.172.047 0 .293 0 .504.129-.281.046-.48.304-.48.539 0 .164.105.351.375.351.222 0 .539-.187.539-.586 0-.515-.586-.656-.926-.656-.574 0-.926.527-1.043.762-.258-.657-.785-.762-1.078-.762C1.16-4.405.598-3.116.598-2.87c0 .106.106.106.118.106.082 0 .117-.024.129-.118.34-1.054.996-1.3 1.335-1.3.188 0 .54.093.54.668 0 .304-.165.972-.54 2.367-.152.62-.503 1.043-.949 1.043-.058 0-.281 0-.492-.13.246-.058.469-.269.469-.538 0-.27-.223-.352-.375-.352-.293 0-.54.258-.54.574 0 .457.493.657.938.657.657 0 1.008-.692 1.043-.75.117.363.48.75 1.078.75 1.02 0 1.594-1.278 1.594-1.535 0-.094-.094-.094-.129-.094-.082 0-.105.035-.129.105C4.36-.35 3.692-.104 3.364-.104c-.387 0-.539-.328-.539-.657 0-.222.059-.445.164-.878zm0 0" aria-label="x" style="fill:#000;fill-opacity:1;fill-rule:nonzero;stroke:none" transform="matrix(1.33333 0 0 1.33333 123.52 68.256)"/><path d="M2.027-3.292a.6.6 0 0 0 .058-.223c0-.21-.2-.386-.41-.386-.27 0-.352.222-.387.328L.374-.55a.5.5 0 0 0-.035.117c0 .082.211.153.27.153.046 0 .058-.024.105-.13zm0 0" aria-label="0" style="fill:#000;fill-opacity:1;fill-rule:nonzero;stroke:none" transform="matrix(1.33333 0 0 1.33333 131.112 63.436)"/><path d="M2.026-.01c0-.657-.257-1.043-.644-1.043a.51.51 0 0 0-.527.527c0 .27.199.527.527.527a.52.52 0 0 0 .351-.129c.024-.023.036-.035.047-.035s.024.012.024.152c0 .739-.352 1.336-.68 1.665-.105.105-.105.128-.105.164 0 .07.046.105.093.105.118 0 .914-.762.914-1.934M9.26-3.797c.047-.14.047-.152.047-.222 0-.188-.14-.27-.293-.27a.44.44 0 0 0-.352.2c-.023.058-.094.363-.14.538-.07.258-.141.528-.2.797L7.877-.96c-.035.153-.469.856-1.125.856-.504 0-.621-.446-.621-.809 0-.457.176-1.078.516-1.957.152-.41.199-.516.199-.715a.8.8 0 0 0-.82-.82c-.95 0-1.313 1.453-1.313 1.535 0 .106.094.106.117.106.094 0 .106-.024.152-.188.27-.937.668-1.23 1.008-1.23.082 0 .258 0 .258.316 0 .246-.105.516-.176.703-.398 1.055-.574 1.617-.574 2.086 0 .89.621 1.184 1.219 1.184.387 0 .726-.164.996-.446-.129.516-.246 1.008-.645 1.536-.257.34-.632.632-1.09.632-.14 0-.597-.035-.761-.422.164 0 .293 0 .433-.117.094-.093.2-.222.2-.41 0-.316-.27-.351-.375-.351-.223 0-.551.164-.551.644 0 .504.433.867 1.055.867 1.02 0 2.05-.902 2.332-2.027zm0 0" aria-label=",y" style="fill:#000;fill-opacity:1;fill-rule:nonzero;stroke:none" transform="matrix(1.33333 0 0 1.33333 134.838 68.256)"/><path d="M2.027-3.292a.6.6 0 0 0 .059-.223c0-.21-.2-.386-.41-.386-.27 0-.352.222-.387.328L.375-.55a.5.5 0 0 0-.035.117c0 .082.21.153.27.153.046 0 .058-.024.105-.13zm0 0" aria-label="0" style="fill:#000;fill-opacity:1;fill-rule:nonzero;stroke:none" transform="matrix(1.33333 0 0 1.33333 147.732 63.436)"/><path d="M2.883-2.495c0-.773-.117-1.98-.657-3.105C1.63-6.82.762-7.475.668-7.475a.105.105 0 0 0-.106.105c0 .035 0 .047.2.234.972.985 1.535 2.567 1.535 4.641 0 1.711-.363 3.457-1.594 4.723-.14.117-.14.129-.14.164 0 .058.046.105.105.105.094 0 .996-.68 1.582-1.945.504-1.102.633-2.203.633-3.047m0 0" aria-label=")" style="fill:#000;fill-opacity:1;fill-rule:nonzero;stroke:none" transform="matrix(1.33333 0 0 1.33333 151.458 68.256)"/><path d="M0 0c-.2 3.336 1.823 6.805 6.137 9.295l44.118 25.471c4.314 2.49 6.338 5.96 6.137 9.295 2.789-1.84 6.805-1.823 11.119.668l44.118 25.47c4.314 2.491 8.33 2.51 11.118.668" style="fill:none;stroke:#000;stroke-width:.79701;stroke-linecap:butt;stroke-linejoin:miter;stroke-miterlimit:10;stroke-dasharray:2.98883,2.98883;stroke-dashoffset:0;stroke-opacity:1" transform="matrix(1.33333 0 0 -1.33333 37.796 239.922)"/><path d="M.88-.586c-.035.152-.094.375-.094.422 0 .187.14.27.293.27.117 0 .293-.071.364-.27.023-.047.363-1.395.398-1.582.082-.328.258-1.02.316-1.29.047-.128.329-.597.563-.82.082-.07.375-.328.797-.328.258 0 .41.117.422.117-.305.047-.516.293-.516.551 0 .164.105.352.375.352s.55-.235.55-.586c0-.352-.327-.656-.831-.656-.645 0-1.09.492-1.278.773-.082-.457-.433-.773-.902-.773-.457 0-.644.386-.738.574-.176.34-.305.937-.305.96 0 .106.094.106.117.106.094 0 .106-.012.164-.234.176-.703.375-1.184.727-1.184.176 0 .316.082.316.457 0 .211-.035.317-.164.832zm0 0" aria-label="r" style="fill:#000;fill-opacity:1;fill-rule:nonzero;stroke:none" transform="matrix(1.33333 0 0 1.33333 116.445 171.778)"/></svg>